<svg width="600" height="263" viewBox="0 0 600 263" fill="none" xmlns="http://www.w3.org/2000/svg">
<path d="M234.033 176.492H247.956V85H234.033V176.492ZM198.895 122.79C205.525 122.79 210.829 125.442 214.807 130.083C217.459 126.768 220.773 124.116 224.088 120.801C222.099 118.812 220.111 116.823 218.122 115.497C213.481 112.182 208.177 110.856 202.21 110.193C198.895 109.53 194.917 110.193 191.602 110.856C186.298 112.182 182.32 114.171 177.68 116.823C173.039 120.138 169.061 124.779 167.072 130.083C166.409 131.409 166.409 132.072 165.746 133.398C165.746 133.398 165.083 134.724 165.083 135.387C165.083 136.05 165.083 136.713 164.42 136.713V137.376C164.42 138.039 164.42 139.365 163.757 140.028C163.757 141.354 163.757 142.017 163.757 143.343C163.757 144.669 163.757 145.331 163.757 146.657C163.757 147.32 163.757 148.646 164.42 149.309V149.972C164.42 150.635 164.42 151.298 165.083 151.298C165.083 151.961 165.746 153.287 165.746 153.287C166.409 154.613 166.409 155.276 167.072 156.602C169.061 161.906 173.039 166.547 177.68 169.862C181.657 173.177 186.298 175.166 191.602 175.829C194.917 176.492 198.895 177.155 202.21 176.492C207.514 175.829 212.818 174.503 218.122 171.188C220.111 169.862 222.099 167.873 224.088 165.884C221.436 162.569 218.122 159.917 214.807 156.602C210.829 161.243 205.525 163.895 198.895 163.895C186.961 163.895 177.68 154.613 177.68 142.68C177.68 132.072 187.624 122.79 198.895 122.79ZM154.475 110.193H141.215V112.845C139.89 112.182 138.564 111.519 136.575 110.856C133.923 110.193 131.271 109.53 128.619 109.53C127.293 109.53 125.304 109.53 123.978 109.53C120.663 110.193 117.348 110.193 114.033 111.519C109.392 113.508 106.077 116.16 102.762 119.475C99.4475 122.79 96.7956 126.768 94.8066 130.746C93.4807 133.398 92.8177 136.05 92.8177 138.702C92.8177 142.017 92.1547 145.994 93.4807 149.309C94.1436 151.298 94.8066 153.287 95.4696 155.276C98.1216 161.243 102.099 166.547 107.403 170.525C110.718 173.177 114.696 174.503 118.674 175.829C122.652 177.155 127.293 177.155 131.934 176.492C136.575 175.829 141.215 173.177 145.856 170.525C147.182 169.862 147.845 169.199 149.171 168.536C151.16 170.525 156.464 175.829 156.464 175.166C158.453 172.514 161.105 170.525 163.094 167.873C163.757 167.21 163.757 167.21 163.757 166.547C160.442 163.232 157.79 160.58 154.475 157.265V110.193ZM141.215 157.928C135.912 165.221 121.989 166.547 113.37 158.591C104.751 150.635 104.751 138.039 111.381 130.083C119.337 120.801 133.26 120.801 141.215 129.42V157.928ZM47.7348 116.16C43.7569 112.845 39.116 110.856 33.8121 110.193C30.4972 109.53 27.8453 109.53 24.5304 109.53C21.2155 110.193 17.9006 110.856 14.5856 112.182C14.5856 112.182 13.9227 112.182 13.2597 112.182V85H0V159.254C0 159.917 0 160.58 0 161.243C0 162.569 2.96377e-07 163.895 1.32597 164.558C2.65193 166.547 3.9779 167.873 5.96685 169.862C12.5967 175.166 19.8895 177.818 27.8453 177.818C29.8343 177.818 32.4862 177.818 34.4751 177.155C36.4641 176.492 38.453 175.829 40.442 175.166C44.4199 173.84 48.3978 171.188 51.0497 167.873C53.0387 165.884 55.0276 163.895 56.3536 161.906C59.0055 157.265 60.9945 152.624 61.6575 147.32C62.3204 141.354 61.6575 136.05 59.6685 130.746C57.0166 124.779 52.3757 120.138 47.7348 116.16ZM46.4088 150.635C44.4199 156.602 39.779 160.58 33.8121 163.232C29.8342 164.558 25.8564 164.558 21.8785 163.895C18.5635 163.232 15.2486 161.243 12.5967 158.591V129.42C14.5856 127.431 17.2376 125.442 20.5525 124.779C24.5304 123.453 29.1713 123.453 33.1492 124.779C36.4641 126.105 39.779 128.094 41.768 130.746C43.0939 132.072 44.4199 134.061 45.0829 136.05C45.7459 138.039 46.4088 140.028 46.4088 142.017C48.3978 144.668 47.7348 147.983 46.4088 150.635ZM70.2762 176.492H84.1989V85H70.2762V176.492ZM595.359 91.6298C596.022 90.9669 596.022 90.9668 596.022 90.3039C596.022 88.9779 595.359 87.6519 593.37 87.6519H590.055V95.6077H591.381V92.2928H592.707L594.696 95.6077H596.022L593.37 92.2928C594.696 92.2928 594.696 92.2928 595.359 91.6298ZM592.707 91.6298H591.381V88.9779H592.707H593.37H594.033C594.033 88.9779 594.033 88.9779 594.696 89.6409V90.3039V90.9669C594.696 90.9669 594.696 90.9669 594.033 91.6298H593.37H592.707ZM578.122 85.663C576.133 85 566.188 85 564.862 85.663V112.845C562.21 111.519 559.558 110.193 556.906 110.193C555.58 110.193 554.254 110.193 552.928 109.53C550.939 108.867 548.95 109.53 547.624 109.53C546.961 109.53 546.961 109.53 546.298 109.53C542.983 109.53 539.669 110.856 537.017 112.182C530.387 115.497 525.083 120.138 521.105 126.105C519.116 129.42 517.79 133.398 517.127 136.713C516.464 139.365 516.464 142.68 516.464 145.331C516.464 149.309 517.79 153.287 519.116 156.602C524.42 167.21 532.376 173.84 544.309 175.829C548.95 176.492 553.591 176.492 558.232 175.166C560.884 174.503 562.873 173.84 565.525 172.514C570.166 170.525 574.144 167.21 576.796 163.232C578.122 163.895 578.122 162.569 578.122 161.243C578.122 136.713 578.122 112.182 578.122 86.9889C578.122 86.9889 578.122 86.326 578.122 85.663ZM563.536 159.254C560.221 161.906 556.243 163.895 551.602 163.895C549.613 163.895 548.287 163.895 546.298 163.895C542.32 163.232 538.343 161.243 535.691 157.928C532.376 154.613 530.387 150.635 530.387 145.331C529.724 139.365 531.713 134.724 535.691 130.083C538.343 126.768 541.657 124.779 545.635 123.453C551.602 121.464 556.906 122.79 562.21 126.105C563.536 126.768 564.862 128.094 566.188 128.757C566.188 129.42 566.188 130.083 566.188 130.746C566.188 139.365 566.188 147.983 566.188 156.602C564.862 157.928 564.199 158.591 563.536 159.254ZM292.376 110.856H277.127L247.956 143.343L278.453 175.166H295.691L264.53 143.343L292.376 110.856ZM505.856 159.917C504.53 158.591 504.53 157.928 504.53 156.602C504.53 142.017 504.53 128.094 504.53 113.508C504.53 112.845 504.53 112.182 504.53 111.519H491.271C491.271 114.834 491.271 118.149 491.271 120.801C491.271 124.116 491.271 126.768 491.271 130.083V157.928C491.271 157.928 491.271 158.591 490.608 158.591C489.945 159.254 489.282 159.254 489.282 159.917C484.641 163.895 478.674 165.221 472.707 163.895C468.066 163.232 464.751 161.243 461.436 157.265C458.122 153.287 456.133 148.646 456.133 143.343C456.133 133.398 456.133 122.79 456.133 112.845C456.133 112.182 456.133 111.519 456.133 110.856H442.873C442.873 111.519 442.873 112.182 442.873 112.845C442.873 122.79 442.873 132.735 442.873 142.017C442.873 144.668 442.873 147.32 443.536 149.309C444.862 156.602 448.177 162.569 453.481 167.873C458.121 172.514 463.425 175.166 469.392 176.492C474.696 177.818 480 177.818 485.304 176.492C488.619 175.829 491.934 173.84 495.249 171.851C496.575 171.188 497.238 170.525 498.564 169.862C500.552 171.851 503.204 173.84 505.193 175.829C506.519 175.166 513.149 167.873 513.812 166.547C513.149 165.884 513.149 165.884 512.486 165.221C509.834 163.895 507.845 161.906 505.856 159.917ZM599.337 88.9779C598.674 88.3149 598.674 87.6519 598.011 86.9889C597.348 86.326 596.685 85.663 596.022 85.663C595.359 85 594.033 85 593.37 85C592.707 85 591.381 85 590.718 85.663C590.055 86.326 589.392 86.326 588.729 86.9889C588.066 87.6519 587.403 88.3149 587.403 88.9779C586.74 89.6409 586.74 90.9669 586.74 91.6298C586.74 92.9558 586.74 93.6188 587.403 94.2818C588.066 94.9448 588.066 95.6077 588.729 96.2707C589.392 96.9337 590.055 97.5967 590.718 97.5967C591.381 98.2597 592.707 98.2597 593.37 98.2597C594.033 98.2597 595.359 98.2597 596.022 97.5967C596.685 96.9337 597.348 96.9337 598.011 96.2707C598.674 95.6077 599.337 94.9448 599.337 94.2818C600 93.6188 600 92.2928 600 91.6298C599.337 90.9669 599.337 90.3039 599.337 88.9779ZM598.011 94.2818C598.011 94.9448 597.348 95.6077 596.685 96.2707C596.022 96.9337 595.359 96.9337 594.696 97.5967C594.033 97.5967 593.37 98.2597 592.707 98.2597C592.044 98.2597 591.381 98.2597 590.718 97.5967C590.055 97.5967 589.392 96.9337 588.729 96.2707C588.066 95.6077 588.066 94.9448 587.403 94.2818C587.403 93.6188 586.74 92.9558 586.74 91.6298C586.74 90.9669 586.74 90.3039 587.403 88.9779C587.403 88.3149 588.066 87.6519 588.729 86.9889C589.392 86.326 590.055 86.326 590.718 85.663C591.381 85.663 592.044 85 592.707 85C593.37 85 594.033 85 594.696 85.663C595.359 85.663 596.022 86.326 596.685 86.9889C597.348 87.6519 597.348 88.3149 598.011 88.9779C598.011 89.6409 598.674 90.3039 598.674 91.6298C598.674 92.9558 598.011 93.6188 598.011 94.2818ZM346.74 116.16C342.762 112.845 338.122 110.856 332.818 110.193C329.503 109.53 326.851 109.53 323.536 109.53C320.221 110.193 316.906 110.856 313.591 112.182C313.591 112.182 312.928 112.182 312.265 112.182V85H298.343V159.254C298.343 159.917 298.343 160.58 298.343 161.243C298.343 162.569 298.343 163.895 299.669 164.558C300.994 166.547 302.32 167.873 304.309 169.862C310.939 175.166 318.232 177.818 326.188 177.818C328.177 177.818 330.829 177.818 332.818 177.155C334.807 176.492 336.796 175.829 338.785 175.166C342.762 173.84 346.74 171.188 349.392 167.873C351.381 165.884 353.37 163.895 354.696 161.906C357.348 157.265 359.337 152.624 360 147.32C360.663 141.354 360 136.05 358.011 130.746C356.022 124.779 352.044 120.138 346.74 116.16ZM346.077 150.635C344.088 156.602 339.448 160.58 333.481 163.232C329.503 164.558 325.525 164.558 321.547 163.895C318.232 163.232 314.917 161.243 312.265 158.591V129.42C314.254 127.431 316.906 125.442 320.221 124.779C324.199 123.453 328.84 123.453 332.818 124.779C336.133 126.105 339.448 128.094 341.436 130.746C342.762 132.072 344.088 134.061 344.751 136.05C345.414 138.039 346.077 140.028 346.077 142.017C347.403 144.668 347.403 147.983 346.077 150.635ZM428.95 110.193H415.691V112.845C414.365 112.182 413.039 111.519 411.05 110.856C408.398 110.193 405.746 109.53 403.094 109.53C401.768 109.53 399.779 109.53 398.453 109.53C395.138 110.193 391.823 110.193 388.508 111.519C383.867 113.508 380.552 116.16 377.238 119.475C373.923 122.79 371.271 126.768 369.282 130.746C367.956 133.398 367.293 136.05 367.293 138.702C367.293 142.017 366.63 145.994 367.956 149.309C368.619 151.298 369.282 153.287 369.945 155.276C372.597 161.243 376.575 166.547 381.878 170.525C385.193 173.177 389.171 174.503 393.149 175.829C397.127 177.155 401.768 177.155 406.409 176.492C411.05 175.829 415.691 173.177 420.331 170.525C421.657 169.862 422.32 169.199 423.646 168.536C425.635 170.525 430.939 175.829 430.939 175.166C432.928 172.514 435.58 170.525 437.569 167.873C438.232 167.21 438.232 167.21 438.232 166.547C434.917 163.232 432.265 160.58 428.95 157.265V110.193ZM415.691 157.928C410.387 165.221 396.464 166.547 387.845 158.591C379.227 150.635 379.227 138.039 385.856 130.083C393.812 120.801 407.735 120.801 415.691 129.42V157.928Z" fill="#515661"/>
</svg>
