<?xml version="1.0" encoding="utf-8"?>
<!-- Generator: Adobe Illustrator 23.0.1, SVG Export Plug-In . SVG Version: 6.00 Build 0)  -->
<svg version="1.1" id="Layer_1" xmlns="http://www.w3.org/2000/svg" xmlns:xlink="http://www.w3.org/1999/xlink" x="0px" y="0px"
	 viewBox="0 0 1000 1000" style="enable-background:new 0 0 1000 1000;" xml:space="preserve">
<style type="text/css">
	.st0{fill:#231F20;}
	.st1{fill:#95C840;}
	.st2{fill:#59C9E6;}
	.st3{fill:#EBE719;}
	.st4{fill:#50C0AF;}
	.st5{fill:#0377BB;}
	.st6{fill:#78BC43;}
	.st7{fill:#109FDA;}
</style>
<g>
	<g>
		<path class="st0" d="M122.5,476.3v80.6h-19.9v-75c0-6.9-1.4-12.5-3.7-15.7c-2.8-3.2-6.5-5.1-12-5.1c-4.2,0-8.8,1.4-13.3,3.7
			c-4.5,2.3-9.3,6-13.9,10.6v82H40.2V446.2h18.1V461c6.5-6,12.5-10.2,18.1-12.5c5.6-2.3,11.1-3.7,16.7-3.7c9.3,0,16.7,2.8,21.8,8.3
			c5.1,5.1,7.9,13,7.9,23.1 M186.9,403.6v16.2l-8.3-0.5c-1.8,0-3.2-0.5-4.2-0.5c-4.6,0-7.9,1-9.7,3.2c-1.8,2.2-2.8,5.6-2.8,10.6v13
			h24.5v16.7h-24.5v94.5h-19.5v-127c0-9.3,2.3-16.2,7.4-20.8c4.6-4.6,11.6-7.4,20.8-7.4c1.8,0,4.2,0,6.5,0.5
			C179.1,402.6,181.8,403.1,186.9,403.6 M236.8,443.9c14.4,0,25.9,5.1,33.8,14.8c7.9,9.7,12,23.6,12,41.7c0,18.1-4.2,31.9-12,41.7
			c-7.9,9.7-19.5,14.8-33.8,14.8s-25.9-5.1-33.8-14.8c-7.9-9.7-12-23.6-12-41.7c0-17.6,4.2-31.5,12-41.7
			C210.9,449,222,443.9,236.8,443.9 M236.8,461c-8.3,0-14.8,3.2-19.5,9.7c-4.2,6.5-6.5,16.2-6.5,29.2c0,13,2.3,22.7,6.5,29.6
			c4.2,6.5,10.6,10.2,19.5,10.2c8.3,0,14.8-3.2,19-10.2c4.6-6.5,6.5-16.7,6.5-29.2c0-13-2.3-22.7-6.5-29.6
			C251.7,464.2,245.2,461,236.8,461 M410,402.6h19.5v154.7H410V402.6z"/>
		<path class="st0" d="M0.2,402.6h19.5v154.7H0.2V402.6z M320.2,557.3v-12.1c3.2,3.2,6.5,6,10.6,7.9c5,2.5,10.6,3.7,16.2,3.7
			c13.9,0,24.5-5.1,31.9-14.8c7.9-10.2,11.6-24.1,11.6-41.7c0-17.1-4.2-30.6-12-40.8s-18.4-14.8-31.9-14.8c-5.6,0-10.2,1.4-14.8,3.2
			c-4.7,2.3-8.7,5.9-11.6,10.2v-55.6h-19.5v154.7H320.2z M363.7,530c-4.6,6.9-11.1,10.2-19.5,10.2c-4.6,0-8.8-1-12.5-3.2
			c-3.7-2.2-7.9-5.6-11.1-10.2V474c3.7-4.2,7.4-7.9,11.1-9.7c3.7-2.3,7.9-3.2,12-3.2c8.8,0,15.7,3.2,20.5,10.2
			c4.7,6.9,6.9,17.1,6.9,30.1c-1,12.5-2.8,22.2-7.4,28.7 M494.3,443.9c14.4,0,25.9,5.1,33.8,14.8s12,23.6,12,41.7s-4.2,31.9-12,41.7
			c-7.9,9.7-19.5,14.8-33.8,14.8s-25.9-5.1-33.8-14.8c-7.9-9.7-12-23.6-12-41.7c0-17.6,4.2-31.5,12-41.7
			C468.4,449,480,443.9,494.3,443.9 M494.3,461c-8.3,0-14.8,3.2-19.5,9.7c-4.2,6.5-6.5,16.2-6.5,29.2s2.3,22.7,6.5,29.6
			c4.2,6.5,10.6,10.2,19.5,10.2c8.3,0,14.8-3.2,19-10.2c4.6-6.5,6.5-16.7,6.5-29.2c0-13-2.3-22.7-6.5-29.6
			C509.1,464.3,502.6,461,494.3,461 M578.6,497.6l-31.9-53.2h22.7l20.5,37l20.8-37h21.3l-31,53.2l35.2,58.8h-22.7l-24.1-44l-24.1,44
			H544L578.6,497.6z"/>
	</g>
	<path class="st1" d="M745.3,476.7l-55.9-41.9c-1.6-1.6-2.3-3.1-2.3-3.9c0-1.6,0.8-3.1,2.3-3.9l55.9-41.9c3.9-3.1,11.6-3.1,16.3,0
		l55.9,41.9c1.6,1.6,2.3,3.1,2.3,3.9c0,1.6-0.8,3.1-2.3,3.9l-55.9,41.9C756.9,479.8,749.1,479.8,745.3,476.7"/>
	<path class="st2" d="M745.3,611.8l-55.9-41.9c-1.6-1.6-2.3-3.1-2.3-3.9c0-1.6,0.8-3.1,2.3-3.9l55.9-41.9c3.9-3.1,11.6-3.1,16.3,0
		l55.9,41.9c1.6,1.6,2.3,3.1,2.3,3.9c0,1.6-0.8,3.1-2.3,3.9l-55.9,41.9C756.9,615.6,749.1,615.6,745.3,611.8"/>
	<path class="st3" d="M835.3,410l-55.9-41.9c-1.6-1.6-2.3-3.1-2.3-4.7s0.8-3.1,2.3-3.9l55.9-41.8c5-3.1,11.3-3.1,16.3,0l55.9,41.9
		c1.6,1.6,2.3,3.1,2.3,3.9c0,1.6-0.8,3.1-2.3,4.7l-55.9,41.9C846.6,413.2,840.3,413.2,835.3,410"/>
	<path class="st4" d="M835.3,545l-55.9-41.9c-1.6-1.6-2.3-3.1-2.3-3.9c0-1.6,0.8-3.1,2.3-3.9l55.9-41.9c5-3.1,11.3-3.1,16.3,0
		l55.9,41.9c1.6,1.6,2.3,3.1,2.3,3.9c0,1.6-0.8,3.1-2.3,3.9L851.6,545C846.6,548.1,840.3,548.1,835.3,545"/>
	<path class="st5" d="M835.3,682.3l-55.9-41.9c-1.6-1.6-2.3-3.1-2.3-4.7s0.8-3.1,2.3-3.9l55.9-41.9c5-3.1,11.3-3.1,16.3,0l55.9,41.9
		c1.6,1.6,2.3,3.1,2.3,3.9c0,1.6-0.8,3.1-2.3,4.7l-55.9,41.9C846.6,685.4,840.3,685.4,835.3,682.3"/>
	<path class="st6" d="M925.3,476.7l-55.9-41.9c-1.6-1.6-2.3-3.1-2.3-3.9c0-1.6,0.8-3.1,2.3-3.9l55.9-41.9c3.9-3.1,11.6-3.1,16.3,0
		l55.9,41.9c1.6,1.6,2.3,3.1,2.3,3.9c0,1.6-0.8,3.1-2.3,3.9l-55.9,41.9C937.7,479.8,929.9,479.8,925.3,476.7"/>
	<path class="st7" d="M925.3,611.8l-55.9-41.9c-1.6-1.6-2.3-3.1-2.3-3.9c0-1.6,0.8-3.1,2.3-3.9l55.9-41.9c3.9-3.1,11.6-3.1,16.3,0
		l55.9,41.9c1.6,1.6,2.3,3.1,2.3,3.9c0,1.6-0.8,3.1-2.3,3.9l-55.9,41.9C937.7,615.6,929.9,615.6,925.3,611.8"/>
</g>
</svg>
