<?xml version="1.0" encoding="UTF-8" standalone="no"?>
<svg
   xmlns:dc="http://purl.org/dc/elements/1.1/"
   xmlns:cc="http://creativecommons.org/ns#"
   xmlns:rdf="http://www.w3.org/1999/02/22-rdf-syntax-ns#"
   xmlns:svg="http://www.w3.org/2000/svg"
   xmlns="http://www.w3.org/2000/svg"
   xml:space="preserve"
   style="enable-background:new -538 392.2 113.4 56.7;"
   viewBox="-538 392.2 113.4 56.7"
   y="0px"
   x="0px"
   id="Ebene_1"
   version="1.1"><metadata
     id="metadata45"><rdf:RDF><cc:Work
         rdf:about=""><dc:format>image/svg+xml</dc:format><dc:type
           rdf:resource="http://purl.org/dc/dcmitype/StillImage" /></cc:Work></rdf:RDF></metadata><defs
     id="defs43" /><style
     id="style2"
     type="text/css">
	.st0{fill:#017DC2;}
	.st1{fill:#022F57;}
</style><g
     id="g38"><path
       id="path4"
       d="M-426.9,425.4c-0.8,0-1.6,0-2.4,0c0-0.2,0-0.3,0-0.5c0-1.9,0-3.8,0-5.7c0-1.1-0.5-1.8-2-1.6   c-0.1,0-0.1,0-0.2,0c-0.8,0.1-0.8,0.1-0.7,0.9c0,0.8,0,1.6,0,2.4c0,1.5,0,2.9,0,4.4c-0.8,0-1.6,0-2.4,0c0-0.5,0-0.9,0-1.3   c0-1.6,0-3.1,0-4.7s-0.9-1.9-2.3-1.6c-0.3,0.1-0.5,0.2-0.5,0.6c0,2.2,0,4.4,0,6.6c0,0.2,0,0.3,0,0.5c-0.8,0-1.6,0-2.4,0v-0.1   c0-2.6,0-5.2,0-7.9c0-1-0.2-0.8,0.9-1.2c1.5-0.5,3.1-0.7,4.6-0.4c0.1,0,0.2,0,0.3,0.1c0.5,0.3,0.9,0.2,1.4,0.1c1-0.3,2-0.4,3-0.2   c1.8,0.3,2.6,1.1,2.7,2.9C-426.9,420.9-426.9,423.2-426.9,425.4z"
       class="st0" /><path
       id="path6"
       d="M-482.8,420.4c0.9,1.6,1.9,3.3,2.9,5c-0.3,0-0.5,0-0.7,0c-0.6,0-1.3,0-1.9,0c-0.3,0-0.4-0.1-0.6-0.4   c-0.7-1.4-1.5-2.7-2.2-4.1c-0.1-0.2-0.2-0.3-0.5-0.3c-0.4,0-0.8,0-1.2,0c0,1.6,0,3.1,0,4.7c-0.9,0-1.7,0-2.5,0c0-4.1,0-8.2,0-12.4   c1.2-0.1,2.3-0.2,3.5-0.3c1,0,2,0,2.9,0.2c1.7,0.3,2.5,1.3,2.7,3c0.1,0.7,0,1.4-0.1,2c-0.2,1.1-0.9,1.8-1.9,2.2   C-482.6,420.3-482.7,420.4-482.8,420.4L-482.8,420.4z M-487,418.6c0.8,0,1.6,0,2.4,0c0.8-0.1,1.4-0.5,1.6-1.2   c0.1-0.4,0.1-0.8,0.1-1.2c-0.1-0.7-0.5-1.2-1.2-1.3c-0.9-0.1-1.7-0.1-2.6,0c-0.1,0-0.2,0.1-0.2,0.2C-487,416.3-487,417.4-487,418.6   z"
       class="st0" /><path
       id="path8"
       d="M-448,425.4c-0.8,0-1.6,0-2.4,0c0-4.4,0-8.9,0-13.3c0.8,0,1.6,0,2.4,0c0,1.3,0,2.5,0,3.8c0.1,0,0.2,0,0.4,0   c1-0.3,2.1-0.3,3.2-0.1c1.7,0.3,2.5,1.3,2.5,3.1c0,2.1,0,4.2,0,6.3c0,0.1,0,0.1,0,0.2c-0.8,0-1.6,0-2.4,0c0-0.1,0-0.3,0-0.4   c0-1.7,0-3.4,0-5.1c0-0.3,0-0.7-0.1-1c-0.1-0.6-0.4-1-1-1.1c-0.7-0.2-1.5-0.1-2.2,0.1c-0.3,0.1-0.4,0.2-0.4,0.5c0,2.2,0,4.5,0,6.7   C-448,425.2-448,425.3-448,425.4z"
       class="st0" /><path
       id="path10"
       d="M-478,425.4c0-4.5,0-8.9,0-13.3c0.8,0,1.6,0,2.4,0c0,1.3,0,2.5,0,3.8c0.9-0.1,1.7-0.2,2.5-0.2   c0.5,0,0.9,0.1,1.4,0.2c1.4,0.3,2.1,1.3,2.1,3c0,2.1,0,4.2,0,6.3c0,0.1,0,0.2,0,0.3c-0.8,0-1.6,0-2.4,0c0-0.1,0-0.3,0-0.4   c0-1.7,0-3.4,0-5.1c0-0.3,0-0.7-0.1-1c-0.1-0.6-0.4-1-1-1.1c-0.7-0.2-1.4-0.1-2.2,0.1c-0.3,0.1-0.4,0.2-0.4,0.5c0,2.2,0,4.4,0,6.6   c0,0.1,0,0.3,0,0.4C-476.4,425.4-477.2,425.4-478,425.4z"
       class="st0" /><path
       id="path12"
       d="M-463.9,429c-0.8,0-1.6,0-2.5,0c0.3-0.8,0.6-1.6,0.8-2.3c0.2-0.5,0.4-1.1,0.6-1.6c0.1-0.2,0.1-0.4,0-0.6   c-1.2-2.8-2.4-5.5-3.6-8.3c-0.1-0.1-0.1-0.2-0.2-0.4c0.8,0,1.6,0,2.4,0c0.1,0,0.2,0.2,0.3,0.3c0.7,1.7,1.4,3.5,2.1,5.2   c0,0.1,0.1,0.2,0.2,0.4c0.6-2,1.2-3.9,1.9-5.9c0.8,0,1.6,0,2.5,0C-460.9,420.2-462.4,424.6-463.9,429z"
       class="st0" /><path
       id="path14"
       d="M-456.8,417.6c-0.5,0-1,0-1.6,0c0-0.6,0-1.2,0-1.8c0.5,0,1,0,1.5,0c0-0.8,0-1.5,0-2.3c0.8-0.1,1.6-0.2,2.4-0.4   c0,0.9,0,1.7,0,2.6c0.7,0,1.3,0,1.9,0c0,0.6,0,1.2,0,1.8c-0.6,0-1.3,0-1.9,0c0,0.1-0.1,0.1-0.1,0.1c0,1.6,0,3.2,0,4.8   c0,0.9,0.3,1.1,1.2,1.1c0.2,0,0.5,0,0.8,0c0.1,0.5,0.1,1.1,0.2,1.7c-1.2,0.2-2.3,0.4-3.4-0.2c-0.9-0.4-1.2-1.2-1.2-2.1   c0-1.7,0-3.3,0-5C-456.8,418-456.8,417.8-456.8,417.6z"
       class="st0" /><path
       id="path16"
       d="M-524.6,417.4c0.9,0,1.6,0.7,1.6,1.6s-0.7,1.6-1.6,1.6c-0.9,0-1.6-0.7-1.7-1.6   C-526.2,418.2-525.5,417.4-524.6,417.4z"
       class="st0" /><path
       id="path18"
       d="M-535.7,423.8c0-0.9,0.7-1.6,1.6-1.6c0.9,0,1.6,0.8,1.6,1.6c0,0.9-0.8,1.6-1.7,1.6   C-535,425.4-535.7,424.7-535.7,423.8z"
       class="st0" /><path
       id="path20"
       d="M-527.7,423.8c0,0.9-0.8,1.6-1.6,1.6c-0.9,0-1.6-0.8-1.6-1.7c0-0.9,0.8-1.6,1.7-1.6   C-528.4,422.2-527.7,422.9-527.7,423.8z"
       class="st0" /><path
       id="path22"
       d="M-524.6,416c-0.9,0-1.6-0.7-1.6-1.6s0.7-1.6,1.7-1.6c0.9,0,1.6,0.7,1.6,1.6C-522.9,415.2-523.6,416-524.6,416z   "
       class="st0" /><path
       id="path24"
       d="M-534,420.7c-0.9,0-1.6-0.7-1.6-1.6s0.7-1.6,1.6-1.6c0.9,0,1.6,0.7,1.6,1.6S-533.1,420.7-534,420.7z"
       class="st0" /><path
       id="path26"
       d="M-527.7,414.3c0,0.9-0.7,1.6-1.6,1.6c-0.9,0-1.6-0.7-1.6-1.6s0.7-1.6,1.6-1.6S-527.7,413.4-527.7,414.3z"
       class="st0" /><g
       id="g36"><path
         id="path28"
         d="M-500.6,428.7c0.1-0.6,0.1-1.2,0.2-1.8c0.8,0.1,1.6,0.2,2.4,0.2c0.5,0,0.9,0,1.4,0c1.1,0,1.7-0.8,1.6-2    c-0.7,0-1.4,0.1-2.1,0.1c-0.5,0-0.9-0.1-1.4-0.2c-1.3-0.3-2-1.1-2.3-2.4c-0.4-1.5-0.4-2.9,0-4.4c0.3-1.5,1.2-2.3,2.7-2.6    c1.8-0.3,3.5-0.2,5.1,0.5c0.3,0.1,0.4,0.2,0.4,0.6c0,0.3,0,0.6,0,0.9c0,2.7,0,5.4,0,8.1c0,1.8-0.9,2.8-2.7,3.1    c-1.5,0.2-3,0-4.5-0.2C-500.1,428.8-500.3,428.8-500.6,428.7z M-495.1,417.8c-0.6-0.1-1.2-0.1-1.7-0.1c-1,0-1.7,0.5-1.8,1.5    c-0.1,0.9-0.1,1.8-0.1,2.6c0,0.6,0.3,1.2,1,1.5c0.9,0.3,1.8,0.3,2.6,0C-495.1,421.5-495.1,419.7-495.1,417.8z"
         class="st1" /><path
         id="path30"
         d="M-511.5,420.4c0.1-0.6,0.1-1.4,0.3-2.2c0.3-1.3,1.2-2.1,2.5-2.4c1.1-0.2,2.2-0.2,3.3,0c1.3,0.3,2,1.1,2.3,2.4    c0.4,1.5,0.4,3,0,4.5c-0.4,1.6-1.3,2.5-3,2.7c-0.8,0.1-1.6,0.1-2.4,0c-1.7-0.2-2.6-1.2-2.9-3    C-511.4,421.8-511.4,421.2-511.5,420.4z M-505.2,421.1C-505.2,421.1-505.1,421.1-505.2,421.1c0-0.8-0.1-1.7-0.2-2.5    c-0.1-0.5-0.5-0.9-1-1c-0.4-0.1-0.7-0.1-1.1,0c-0.8,0.1-1.2,0.4-1.3,1.2c-0.1,1-0.1,2-0.1,3c0.1,1.2,0.5,1.6,1.8,1.7    c1.1,0.1,1.7-0.4,1.9-1.5C-505.2,421.8-505.2,421.5-505.2,421.1z"
         class="st1" /><path
         id="path32"
         d="M-519.7,412.9c0.8,0,1.7,0,2.5,0c0,0.1,0,0.3,0,0.4c0,2.8,0,5.5,0,8.3c0,0.3,0,0.6,0.1,0.8    c0.1,0.6,0.3,0.9,0.9,0.9c1.2,0.1,2.3,0,3.5,0.1c0.2,0,0.4,0,0.5,0c0,0.7,0,1.3,0,2c-1.8,0-3.6,0.2-5.3-0.1    c-1.5-0.3-2.3-1.1-2.3-2.6C-519.8,419.5-519.8,416.2-519.7,412.9C-519.7,413-519.7,412.9-519.7,412.9z"
         class="st1" /><path
         id="path34"
         d="M-527.7,419.1c0,0.9-0.7,1.6-1.6,1.6c-0.9,0-1.7-0.7-1.7-1.6s0.7-1.6,1.6-1.6    C-528.4,417.4-527.7,418.1-527.7,419.1z"
         class="st1" /></g></g></svg>