<?xml version="1.0" encoding="utf-8"?>
<!-- Generator: Adobe Illustrator 15.0.0, SVG Export Plug-In . SVG Version: 6.00 Build 0)  -->
<!DOCTYPE svg PUBLIC "-//W3C//DTD SVG 1.1//EN" "http://www.w3.org/Graphics/SVG/1.1/DTD/svg11.dtd">
<svg version="1.1" id="Layer_1" xmlns="http://www.w3.org/2000/svg" xmlns:xlink="http://www.w3.org/1999/xlink" x="0px" y="0px"
	 width="212px" height="71.572px" viewBox="9.297 3.714 212 71.572" enable-background="new 9.297 3.714 212 71.572"
	 xml:space="preserve">
<rect x="9.297" y="3.714" fill="#FF0000" width="212" height="71.572"/>
<g>
	<g>
		<g>
			<path fill="#FFFFFF" d="M102.197,26.385h10.138l-5.354-8.645l-9.842,15.619l-4.485,0.003l11.972-18.748
				c0.514-0.756,1.389-1.219,2.35-1.219c0.939,0,1.801,0.444,2.312,1.186l12.019,18.782l-4.484-0.003l-2.114-3.489h-10.272
				L102.197,26.385"/>
			<path fill="#FFFFFF" d="M148.731,29.871V13.585h-3.805v17.885c0,0.484,0.204,0.959,0.559,1.31c0.367,0.369,0.866,0.58,1.392,0.58
				h17.32l2.261-3.489L148.731,29.871"/>
			<path fill="#FFFFFF" d="M85.833,26.955c3.704,0,6.68-2.994,6.68-6.682c0-3.694-2.975-6.688-6.68-6.688H69.193v19.775H73V17.077
				h12.578c1.766,0,3.196,1.428,3.196,3.197c0,1.758-1.431,3.205-3.196,3.205l-10.719-0.006l11.354,9.885h5.517l-7.626-6.404
				L85.833,26.955"/>
			<path fill="#FFFFFF" d="M45.8,33.359c-5.46,0-9.888-4.419-9.888-9.881s4.428-9.893,9.888-9.893h11.497
				c5.465,0,9.873,4.431,9.873,9.893s-4.408,9.884-9.873,9.884L45.8,33.359 M57.036,29.876c3.541,0,6.404-2.868,6.404-6.399
				c0-3.541-2.864-6.401-6.404-6.401H46.057c-3.534,0-6.399,2.86-6.399,6.401c0,3.531,2.864,6.399,6.399,6.399H57.036"/>
			<path fill="#FFFFFF" d="M129.24,33.359c-5.471,0-9.905-4.419-9.905-9.881s4.435-9.893,9.905-9.893h13.649l-2.248,3.491h-11.146
				c-3.549,0-6.404,2.861-6.404,6.402c0,3.531,2.855,6.399,6.404,6.399h13.697l-2.225,3.482H129.24"/>
			<path fill="#FFFFFF" d="M175.734,29.876c-2.925,0-5.392-1.963-6.153-4.655h16.239l2.246-3.488H169.58
				c0.759-2.695,3.228-4.658,6.153-4.658h11.155l2.229-3.492h-13.633c-5.459,0-9.886,4.431-9.886,9.893s4.427,9.88,9.886,9.88h11.73
				l2.234-3.482L175.734,29.876"/>
			<path fill="#FFFFFF" d="M191.164,15.695c0-0.969,0.778-1.746,1.75-1.746c0.979,0,1.754,0.777,1.754,1.746
				c0,0.962-0.775,1.742-1.754,1.742C191.94,17.438,191.164,16.658,191.164,15.695 M192.914,17.919c1.233,0,2.217-0.986,2.217-2.213
				c0-1.231-0.983-2.232-2.217-2.232c-1.228,0-2.228,1.001-2.228,2.232C190.687,16.933,191.687,17.919,192.914,17.919
				 M192.705,14.384c0.337,0,0.483,0.014,0.66,0.067c0.435,0.143,0.469,0.55,0.469,0.697c0,0.031-0.011,0.113-0.027,0.205
				c-0.017,0.095-0.072,0.296-0.295,0.43c-0.037,0.018-0.052,0.033-0.103,0.058l0.566,1.03h-0.558l-0.506-0.958h-0.329v0.958h-0.497
				v-2.486L192.705,14.384 M192.886,15.51c0.146,0,0.314-0.016,0.394-0.157c0.068-0.059,0.079-0.132,0.079-0.217
				c0-0.134-0.079-0.239-0.189-0.303c-0.125-0.05-0.223-0.05-0.463-0.05h-0.123v0.728L192.886,15.51"/>
		</g>
	</g>
	<g>
		<path fill="#FFFFFF" d="M53.993,54.391h3.791c1.768,0,3.246,0.126,4.266,1.427c0.646,0.834,0.749,1.773,0.749,2.441
			c0,1.52-0.595,2.803-1.564,3.473c-0.901,0.614-2.143,0.614-2.786,0.614h-1.787v5.082h-2.668L53.993,54.391L53.993,54.391z
			 M56.593,60.267h1.053c0.852,0,2.434,0,2.434-1.987c0-1.774-1.412-1.774-2.161-1.774h-1.326V60.267z"/>
		<path fill="#FFFFFF" d="M65.807,54.354h8.228v2.135h-5.592v3.11h5.234v2.133h-5.234v3.528h5.779v2.169h-8.414L65.807,54.354
			L65.807,54.354z"/>
		<path fill="#FFFFFF" d="M82.822,54.082c1.308,0,3.11,0.325,4.317,1.771c1.31,1.593,1.565,3.637,1.565,4.919
			c0,1.902-0.545,3.927-1.546,5.12c-1.361,1.627-3.351,1.862-4.369,1.862c-1.614,0-3.231-0.544-4.352-1.789
			c-1.344-1.521-1.514-3.69-1.514-4.885C76.924,57.607,78.403,54.082,82.822,54.082z M80.597,64.644
			c0.373,0.541,1.001,1.049,2.225,1.049c1.071,0,1.802-0.396,2.295-1.212c0.407-0.651,0.833-1.664,0.833-3.745
			c0-0.631-0.052-1.536-0.306-2.332c-0.51-1.608-1.546-2.314-2.805-2.314c-0.985,0-1.768,0.433-2.261,1.104
			c-0.698,0.904-0.901,2.315-0.901,3.795C79.676,62.24,79.865,63.633,80.597,64.644z"/>
		<path fill="#FFFFFF" d="M91.813,54.391h3.792c1.768,0,3.247,0.126,4.267,1.427c0.645,0.834,0.749,1.773,0.749,2.441
			c0,1.52-0.596,2.803-1.564,3.473c-0.902,0.614-2.143,0.614-2.788,0.614h-1.785v5.082h-2.668L91.813,54.391L91.813,54.391z
			 M94.415,60.267h1.053c0.85,0,2.433,0,2.433-1.987c0-1.774-1.413-1.774-2.16-1.774h-1.325V60.267z"/>
		<path fill="#FFFFFF" d="M103.543,54.373h2.686v10.832h5.269v2.224h-7.955V54.373L103.543,54.373z"/>
		<path fill="#FFFFFF" d="M114.354,54.354h8.228v2.135h-5.594v3.11h5.236v2.133h-5.236v3.528h5.781v2.169h-8.415L114.354,54.354
			L114.354,54.354z"/>
		<path fill="#FFFFFF" d="M128.038,63.252c0,0.614-0.035,2.479,2.226,2.479c1.428,0,2.328-0.725,2.328-1.829
			c0-1.155-0.764-1.355-2.328-1.755c-2.924-0.775-4.521-1.699-4.521-3.96c0-2.151,1.445-4.051,4.862-4.051
			c1.274,0,2.786,0.307,3.706,1.536c0.697,0.941,0.697,1.99,0.697,2.424h-2.532c-0.032-0.453-0.171-1.987-1.987-1.987
			c-1.227,0-2.023,0.702-2.023,1.77c0,1.212,0.9,1.428,2.668,1.898c2.125,0.544,4.215,1.157,4.215,3.709
			c0,2.35-1.837,4.248-5.235,4.248c-4.708,0-4.743-3.218-4.761-4.486h2.688L128.038,63.252L128.038,63.252z"/>
		<path fill="#FFFFFF" d="M143.981,54.082c1.31,0,3.111,0.325,4.318,1.771c1.309,1.593,1.565,3.637,1.565,4.919
			c0,1.902-0.546,3.927-1.549,5.12c-1.358,1.627-3.35,1.862-4.369,1.862c-1.614,0-3.229-0.544-4.351-1.789
			c-1.343-1.521-1.513-3.69-1.513-4.885C138.084,57.607,139.561,54.082,143.981,54.082z M141.754,64.644
			c0.375,0.541,1.004,1.049,2.226,1.049c1.071,0,1.804-0.396,2.296-1.212c0.407-0.651,0.833-1.664,0.833-3.745
			c0-0.631-0.051-1.536-0.305-2.332c-0.511-1.608-1.549-2.314-2.804-2.314c-0.987,0-1.77,0.433-2.264,1.104
			c-0.697,0.904-0.899,2.315-0.899,3.795C140.837,62.24,141.021,63.633,141.754,64.644z"/>
		<path fill="#FFFFFF" d="M153.042,54.373h7.92v2.097h-5.287v3.221h4.932v2.167h-4.932v5.571h-2.633V54.373L153.042,54.373z"/>
		<path fill="#FFFFFF" d="M166.485,56.523h-3.654v-2.17h9.962v2.17h-3.654v10.905h-2.652L166.485,56.523L166.485,56.523z"/>
	</g>
	<rect x="35.463" y="43.66" fill="#FFFFFF" width="153.993" height="0.989"/>
</g>
</svg>
