<?xml version="1.0" encoding="UTF-8"?>
<svg id="Layer_1" data-name="Layer 1" xmlns="http://www.w3.org/2000/svg" viewBox="0 0 212.8 43.52">
  <defs>
    <style>
      .cls-1 {
        fill: #591d6d;
      }
    </style>
  </defs>
  <path class="cls-1" d="M56.49,18.29c2.75,2.76,4.12,6.18,4.12,10.25s-1.38,7.47-4.13,10.23c-2.76,2.76-6.16,4.13-10.23,4.13s-7.47-1.38-10.24-4.13c-2.76-2.76-4.15-6.17-4.15-10.23s1.38-7.5,4.13-10.25c2.76-2.75,6.18-4.13,10.25-4.13s7.49,1.38,10.24,4.13M40.06,22.38c-1.64,1.64-2.46,3.7-2.46,6.18s.83,4.51,2.48,6.15c1.65,1.64,3.71,2.46,6.17,2.46s4.52-.82,6.16-2.46c1.64-1.64,2.46-3.69,2.46-6.15s-.82-4.52-2.46-6.16c-1.64-1.65-3.69-2.47-6.16-2.47s-4.55.82-6.19,2.46"/>
  <path class="cls-1" d="M71.3,7.4c-1.1,1.1-1.65,2.47-1.65,4.12v7.18h10.07v5.74h-10.07v18.68h-5.74V11.52c0-3.26,1.1-6,3.3-8.2C69.42,1.12,72.15.02,75.42.02s6,1.1,8.2,3.3c2.2,2.2,3.3,4.94,3.3,8.2h-5.77c0-1.65-.54-3.02-1.63-4.12-1.09-1.1-2.46-1.65-4.11-1.65s-3.02.55-4.12,1.65"/>
  <polygon class="cls-1" points="88.95 .02 88.95 43.13 94.69 43.13 94.69 18.7 103.34 18.7 103.34 12.94 94.69 12.94 94.69 .02 88.95 .02"/>
  <path class="cls-1" d="M130.79.02v30.19h-.08c-.36,3.75-1.89,6.84-4.59,9.27-2.69,2.43-5.92,3.64-9.7,3.64-4.08,0-7.5-1.37-10.25-4.12-2.76-2.75-4.14-6.16-4.14-10.24s1.38-7.5,4.14-10.25c2.76-2.75,6.17-4.14,10.25-4.14,3.19,0,6.07.96,8.62,2.89V.02h5.74ZM110.26,22.6c-1.65,1.64-2.47,3.7-2.47,6.16s.82,4.52,2.47,6.16c1.65,1.64,3.71,2.46,6.17,2.46s4.52-.82,6.16-2.46c1.64-1.64,2.46-3.69,2.46-6.16s-.82-4.52-2.46-6.16c-1.64-1.64-3.7-2.46-6.16-2.46s-4.52.82-6.17,2.46"/>
  <path class="cls-1" d="M158.24,18.29c2.75,2.76,4.12,6.18,4.12,10.25s-1.38,7.47-4.13,10.23c-2.76,2.76-6.17,4.13-10.23,4.13s-7.48-1.38-10.24-4.13c-2.77-2.76-4.15-6.17-4.15-10.23s1.38-7.5,4.13-10.25c2.76-2.75,6.17-4.13,10.26-4.13s7.49,1.38,10.24,4.13M141.81,22.38c-1.64,1.64-2.46,3.7-2.46,6.18s.82,4.51,2.48,6.15c1.65,1.64,3.71,2.46,6.17,2.46s4.52-.82,6.16-2.46c1.64-1.64,2.46-3.69,2.46-6.15s-.82-4.52-2.46-6.16c-1.64-1.65-3.69-2.47-6.16-2.47s-4.55.82-6.19,2.46"/>
  <path class="cls-1" d="M185.77,34.23l4.08,4.08c-2.87,3.21-6.45,4.81-10.75,4.81s-7.5-1.37-10.25-4.12c-2.76-2.75-4.13-6.16-4.13-10.24s1.38-7.5,4.13-10.25c2.75-2.75,6.17-4.13,10.25-4.13,4.44,0,8.1,1.71,10.99,5.14l-4.11,4.08c-1.72-2.3-4.02-3.45-6.88-3.45-2.47,0-4.53.82-6.17,2.46-1.65,1.64-2.47,3.69-2.47,6.16s.82,4.52,2.47,6.16,3.71,2.46,6.17,2.46c2.72,0,4.94-1.05,6.66-3.16"/>
  <path class="cls-1" d="M204.12,25.63c-.21-.07-.44-.14-.68-.22-2.27-.72-4.32-1.49-4.32-3.05s2.21-2.63,3.74-2.63c1.24,0,2.73.55,3.21,2.1l.24.78h5.67l-.15-1.24c-.3-2.42-3.23-6.93-8.97-6.93-4.96,0-9.32,3.77-9.32,8.07,0,5.39,4.52,7.25,8.46,8.27,3.82,1,4.78,1.58,4.78,4.01,0,1.36-1.27,2.73-3.69,2.73-3.63,0-4.6-2.41-4.6-3.83v-1.3h-5.63v1.35c0,5.83,5.08,9.32,9.99,9.32,5.59,0,9.65-3.47,9.65-8.26,0-5.9-4.33-7.83-8.39-9.16"/>
  <path class="cls-1" d="M15.29,17.45l-.43-.14c-4.66-1.53-7.72-2.77-7.72-5.77,0-3.19,4.08-5.67,7.59-5.67s6.22,1.84,7.38,4.81l.24.61h6l-.17-1.11C27.65,6.79,23.11.11,14.94.11,7.62.11,1.21,5.61,1.21,11.87c0,4.67,3.64,8.11,11.13,10.51l.24.08c5.35,1.73,10.87,3.51,10.87,8.49,0,4.67-4.59,6.33-8.52,6.33-5,0-9.07-3.58-9.07-7.97v-.96H.11v.96c0,8.48,7.7,13.73,14.83,13.73,8.41,0,14.28-4.97,14.28-12.09,0-8.99-8.05-11.59-13.93-13.49"/>
</svg>