<svg width="220" height="59" viewBox="0 0 220 59" fill="none" xmlns="http://www.w3.org/2000/svg">
<g clip-path="url(#clip0_18_21)">
<path d="M104.669 10.5361H95.644L108.278 42.0041H116.216L128.85 10.5361H120.008L112.278 31.7277L104.669 10.5361ZM146.597 54.5031L164.225 10.5361H155.32L147.185 31.3694L140.101 10.5361H131.019L143.284 41.3654L138.181 54.4356L146.603 54.5031H146.597ZM184.032 17.2659V10.5413H179.398V2.73139H170.857V10.5413H166.586V17.2659H170.857V42.0093H179.398V17.2659H184.032ZM202.378 54.5031L220.005 10.5361H211.1L202.965 31.3694L195.881 10.5361H186.799L199.064 41.3654L193.962 54.4356L202.383 54.5031H202.378ZM16.6446 9.65851C7.46926 9.65851 0 17.1101 0 26.2753C0 35.4405 7.46926 42.8921 16.6446 42.8921C25.8199 42.8921 33.2892 35.4353 33.2892 26.2753C33.2892 17.1153 25.8199 9.65851 16.6446 9.65851ZM16.6446 35.103C11.7709 35.103 7.80216 31.1409 7.80216 26.2753C7.80216 21.4097 11.7709 17.4476 16.6446 17.4476C21.5183 17.4476 25.487 21.4097 25.487 26.2753C25.487 31.1409 21.5183 35.103 16.6446 35.103ZM37.0863 5.53028C37.0863 8.58361 34.6052 11.0606 31.5467 11.0606C28.4883 11.0606 26.0072 8.58361 26.0072 5.53028C26.0072 2.47694 28.4883 0 31.5467 0C34.6052 0 37.0863 2.47694 37.0863 5.53028ZM31.7808 41.0123C31.9316 41.8691 32.0252 42.7467 32.0252 43.6502C32.0252 52.1144 25.1281 59.0052 16.6446 59.0052C8.16106 59.0052 1.87252 52.696 1.31076 44.7407H9.16493C10.3145 49.4661 14.2727 52.9608 18.9852 52.9608C24.5924 52.9608 29.1489 48.0173 29.1489 41.9366C29.1489 41.6251 29.128 41.3187 29.1072 41.0123H31.7808ZM84.3725 10.5413V13.0286C81.8706 10.7542 78.0164 9.65851 74.5678 9.65851C65.3925 9.65851 58.4173 17.1101 58.4173 26.2753C58.4173 35.4405 65.3925 42.8921 74.5678 42.8921C78.0164 42.8921 81.8706 41.8951 84.3725 39.522V42.0093H92.2787V10.5413H84.3725ZM75.0619 35.103C70.1882 35.103 66.2195 31.1409 66.2195 26.2753C66.2195 21.4097 70.1882 17.4476 75.0619 17.4476C79.9357 17.4476 83.9044 21.4097 83.9044 26.2753C83.9044 31.1409 79.9357 35.103 75.0619 35.103ZM47.9781 13.0286V10.5413H40.0719V42.0093H47.9781V26.2753C47.9781 21.4097 52.3629 17.4476 57.2366 17.4476V9.65851C53.8141 9.65851 50.2823 10.427 47.9781 13.0286Z" fill="url(#paint0_linear_18_21)"/>
</g>
<defs>
<linearGradient id="paint0_linear_18_21" x1="105.355" y1="71.0368" x2="112.069" y2="-5.8334" gradientUnits="userSpaceOnUse">
<stop stop-color="#2C00B2"/>
<stop offset="0.48" stop-color="#0015FF"/>
<stop offset="0.99" stop-color="#00B4FF"/>
</linearGradient>
<clipPath id="clip0_18_21">
<rect width="220" height="59" fill="white"/>
</clipPath>
</defs>
</svg>
