<?xml version="1.0" encoding="utf-8"?>
<!-- Generator: Adobe Illustrator 22.1.0, SVG Export Plug-In . SVG Version: 6.00 Build 0)  -->
<svg version="1.1"
	 id="Ebene_1" xmlns:cc="http://creativecommons.org/ns#" xmlns:dc="http://purl.org/dc/elements/1.1/" xmlns:rdf="http://www.w3.org/1999/02/22-rdf-syntax-ns#" xmlns:svg="http://www.w3.org/2000/svg"
	 xmlns="http://www.w3.org/2000/svg" xmlns:xlink="http://www.w3.org/1999/xlink" x="0px" y="0px" viewBox="0 0 19.7 17.6"
	 style="enable-background:new 0 0 19.7 17.6;" xml:space="preserve">
<style type="text/css">
	.st0{fill:#017DC2;}
	.st1{fill:#022F57;}
</style>
<g id="g38">
	<path id="path16" class="st0" d="M13.4,6.9c0.9,0,1.6,0.7,1.6,1.6s-0.7,1.6-1.6,1.6c-0.9,0-1.6-0.7-1.7-1.6
		C11.8,7.7,12.5,6.9,13.4,6.9z"/>
	<path id="path18" class="st0" d="M2.3,13.3c0-0.9,0.7-1.6,1.6-1.6c0.9,0,1.6,0.8,1.6,1.6c0,0.9-0.8,1.6-1.7,1.6
		C3,14.9,2.3,14.2,2.3,13.3z"/>
	<path id="path20" class="st0" d="M10.3,13.3c0,0.9-0.8,1.6-1.6,1.6c-0.9,0-1.6-0.8-1.6-1.7c0-0.9,0.8-1.6,1.7-1.6
		C9.6,11.7,10.3,12.4,10.3,13.3z"/>
	<path id="path22" class="st0" d="M13.4,5.5c-0.9,0-1.6-0.7-1.6-1.6s0.7-1.6,1.7-1.6c0.9,0,1.6,0.7,1.6,1.6
		C15.1,4.7,14.4,5.5,13.4,5.5z"/>
	<path id="path24" class="st0" d="M4,10.2c-0.9,0-1.6-0.7-1.6-1.6S3.1,7,4,7c0.9,0,1.6,0.7,1.6,1.6S4.9,10.2,4,10.2z"/>
	<path id="path26" class="st0" d="M10.3,3.8c0,0.9-0.7,1.6-1.6,1.6c-0.9,0-1.6-0.7-1.6-1.6s0.7-1.6,1.6-1.6S10.3,2.9,10.3,3.8z"/>
	<g id="g36">
		<path id="path34" class="st1" d="M10.3,8.6c0,0.9-0.7,1.6-1.6,1.6C7.8,10.2,7,9.5,7,8.6S7.7,7,8.6,7C9.6,6.9,10.3,7.6,10.3,8.6z"
			/>
	</g>
</g>
</svg>
