<?xml version="1.0" encoding="UTF-8" standalone="no"?>
<!-- Created with Inkscape (http://www.inkscape.org/) -->

<svg
   version="1.1"
   id="svg2"
   width="674.22668"
   height="72.239998"
   viewBox="0 0 674.22668 72.239998"
   sodipodi:docname="UMass_Logo_Horizontal_KO.eps"
   xmlns:inkscape="http://www.inkscape.org/namespaces/inkscape"
   xmlns:sodipodi="http://sodipodi.sourceforge.net/DTD/sodipodi-0.dtd"
   xmlns="http://www.w3.org/2000/svg"
   xmlns:svg="http://www.w3.org/2000/svg">
  <defs
     id="defs6" />
  <sodipodi:namedview
     id="namedview4"
     pagecolor="#ffffff"
     bordercolor="#000000"
     borderopacity="0.25"
     inkscape:showpageshadow="2"
     inkscape:pageopacity="0.0"
     inkscape:pagecheckerboard="0"
     inkscape:deskcolor="#d1d1d1" />
  <g
     id="g8"
     inkscape:groupmode="layer"
     inkscape:label="ink_ext_XXXXXX"
     transform="matrix(1.3333333,0,0,-1.3333333,0,72.24)">
    <g
       id="g10"
       transform="scale(0.1)">
      <path
         d="M 260.004,98.3477 225.691,2.65625 h 30.715 l 3.598,12.62505 h 31.234 l 3.731,-12.62505 h 31.23 L 291.898,98.3477 Z m 15.684,-28.8086 10.113,-34.3164 h -19.824 z"
         style="fill:#ffffff;fill-opacity:1;fill-rule:nonzero;stroke:none"
         id="path12" />
      <path
         d="M 0,44.3242 C 0,11.3164 16.5,0.015625 46.1758,0.015625 c 31.8008,0 46.0508,13.425775 46.0508,44.191375 v 54.1407 h -31.418 v -57.336 c 0,-10.3711 -3.3281,-17.5625 -14.6328,-17.5625 -12.9102,0 -14.75,8.0938 -14.75,17.5625 v 57.336 H 0 V 44.3242"
         style="fill:#ffffff;fill-opacity:1;fill-rule:nonzero;stroke:none"
         id="path14" />
      <path
         d="M 180.27,98.3477 163.355,38.5898 146.445,98.3477 H 108.531 V 2.53906 h 28.215 V 35.0156 l -0.672,14.9063 -1.332,14.1133 H 135 L 152.457,2.53906 h 21.801 l 17.457,61.49614 h 0.246 L 190.379,46.6992 189.98,31.8281 V 2.53906 h 28.204 V 98.3477 H 180.27"
         style="fill:#ffffff;fill-opacity:1;fill-rule:nonzero;stroke:none"
         id="path16" />
      <path
         d="m 412.098,70.5352 c -2.278,16.7695 -14.375,30.3518 -40.985,30.3518 -23.98,0 -41.527,-10.2581 -41.527,-30.6253 0,-36.5976 55.098,-26.625 55.098,-41.1133 0,-4.5195 -5.207,-7.0429 -13.028,-7.0429 -3.082,0 -6.398,0.8047 -8.933,2.3789 -2.668,1.5937 -4.535,4.1562 -5.18,7.5898 H 327.461 C 328.121,14.7734 344.605,0 369.898,0 c 26.352,0 44.844,10.8008 44.844,33.0234 0,34.8555 -55.09,25.9375 -55.09,40.3047 0,3.4727 3.071,5.4532 9.985,5.4532 3.082,0 5.867,-0.5391 8.133,-1.7461 2.253,-1.1758 3.964,-3.1758 4.503,-6.5 h 29.825"
         style="fill:#ffffff;fill-opacity:1;fill-rule:nonzero;stroke:none"
         id="path18" />
      <path
         d="m 506.371,70.5352 c -2.254,16.7695 -14.359,30.3518 -40.984,30.3518 -23.942,0 -41.516,-10.2581 -41.516,-30.6253 0,-36.5976 55.113,-26.625 55.113,-41.1133 0,-4.5195 -5.218,-7.0429 -13.066,-7.0429 -3.031,0 -6.383,0.8047 -8.898,2.3789 -2.665,1.5937 -4.543,4.1562 -5.204,7.5898 h -30.07 C 422.422,14.7734 438.906,0 464.184,0 c 26.363,0 44.855,10.8008 44.855,33.0234 0,34.8555 -55.086,25.9375 -55.086,40.3047 0,3.4727 3.067,5.4532 9.981,5.4532 3.043,0 5.839,-0.5391 8.121,-1.7461 2.258,-1.1758 3.976,-3.1758 4.508,-6.5 h 29.808"
         style="fill:#ffffff;fill-opacity:1;fill-rule:nonzero;stroke:none"
         id="path20" />
      <path
         d="m 404.773,228.555 v 0.023 c 0.84,-0.621 1.438,-1.387 2.227,-2.047 -0.773,0.645 -1.41,1.426 -2.227,2.024 m 52.676,193.988 h 0.016 c -1.891,-2.047 -3.922,-4.375 -6.074,-6.938 2.164,2.575 4.183,4.907 6.058,6.938 m 53.875,119.184 v 0 h -7.511 z M 75.9336,169.012 c 3.6133,6.633 8.5586,14.101 14.6172,22.246 C 84.5,183.113 79.5469,175.645 75.9336,169.012 M 256.453,455.434 v 0 c 0.145,-0.094 0.223,-0.204 0.379,-0.313 -0.144,0.094 -0.234,0.211 -0.379,0.313 m 254.91,-332.278 -0.031,418.598 -179.769,-0.012 -56.68,-65.113 -18.453,-21.18 h 0.015 l -0.031,-0.031 c 1.035,-0.656 1.805,-1.457 2.762,-2.172 1.926,-1.426 3.91,-2.851 5.453,-4.391 1.16,-1.14 1.992,-2.406 2.965,-3.625 1.019,-1.281 2.187,-2.55 2.992,-3.859 0.84,-1.387 1.355,-2.836 1.977,-4.273 0.507,-1.192 1.183,-2.383 1.527,-3.559 0.754,-2.594 1.191,-5.25 1.191,-7.914 0,-1.242 -0.297,-2.684 -0.515,-4.055 -0.145,-0.918 -0.129,-1.761 -0.364,-2.718 -0.375,-1.59 -1.062,-3.395 -1.699,-5.141 -0.344,-0.941 -0.539,-1.813 -0.941,-2.793 -1.09,-2.633 -2.446,-5.469 -4.067,-8.473 -0.062,-0.14 -0.117,-0.273 -0.207,-0.414 -1.722,-3.211 -3.769,-6.64 -6.086,-10.277 -1.836,-2.879 -3.757,-5.731 -5.683,-8.473 -1.375,-1.953 -2.957,-4.039 -4.446,-6.058 -1.5,-2.063 -2.949,-4.078 -4.554,-6.196 -2.024,-2.64 -4.184,-5.371 -6.371,-8.101 -1.352,-1.711 -2.707,-3.418 -4.118,-5.153 -2.445,-3.019 -4.96,-6.058 -7.578,-9.156 -1.097,-1.308 -2.211,-2.633 -3.339,-3.965 -17.543,-20.664 -37.864,-42.847 -57.817,-64.613 -39.883,-43.512 -77.9296,-85.051 -92.1757,-112.051 -0.0078,-0.039 -0.039,-0.078 -0.0625,-0.117 -1.8008,-3.43 -3.2109,-6.633 -4.1953,-9.57 -0.0898,-0.246 -0.1406,-0.488 -0.2344,-0.746 -0.8789,-2.84 -1.4726,-5.496 -1.4726,-7.785 0,-10.926 5.4883,-12.864 17.0117,-12.864 0.2734,0 0.5937,0.094 0.8672,0.11 4.2265,0.05 8.6015,0.632 13.0666,1.527 0.972,0.191 1.929,0.324 2.918,0.566 4.797,1.114 9.734,2.719 14.758,4.688 0.972,0.379 1.929,0.769 2.918,1.183 5.371,2.235 10.863,4.891 16.453,7.973 0.765,0.43 1.543,0.883 2.304,1.324 6.051,3.418 12.188,7.25 18.43,11.524 0.594,0.398 1.203,0.84 1.801,1.254 6.629,4.609 13.336,9.625 20.105,15.035 0.66,0.515 1.325,1.074 1.985,1.605 6.976,5.645 14.007,11.629 21.054,17.95 0.946,0.839 1.903,1.718 2.86,2.585 7.148,6.493 14.312,13.262 21.445,20.266 1.219,1.192 2.422,2.371 3.641,3.574 7.797,7.743 15.55,15.723 23.215,23.868 0.535,0.554 1.035,1.035 1.57,1.605 5.722,6.141 10.062,10.84 14.062,15.254 6.668,7.355 13.192,14.738 19.618,22.121 0.234,0.27 0.464,0.543 0.699,0.812 6.215,7.137 12.25,14.208 18.168,21.223 0.258,0.297 0.504,0.598 0.738,0.895 27.684,32.89 51.937,63.914 69.809,86.836 5.722,7.367 10.707,13.73 14.855,18.972 5.359,0.879 11.066,1.321 16.867,1.555 0.754,0.039 1.516,0.023 2.281,0.047 5.18,0.172 10.45,0.226 15.645,0.234 4.18,0.028 8.414,0.067 12.652,0.156 h 0.309 c 4.363,0.106 8.637,0.364 12.883,0.731 1.011,0.07 2.086,0.062 3.097,0.164 -3.753,-4.078 -8.144,-9.32 -13.011,-15.488 -1.676,-2.125 -3.465,-4.469 -5.223,-6.797 -0.695,-0.895 -1.32,-1.695 -2.019,-2.625 -7.395,-9.82 -15.512,-21.25 -23.969,-33.711 -0.559,-0.817 -1.102,-1.578 -1.672,-2.41 -1.539,-2.305 -3.121,-4.699 -4.688,-7.071 -1.644,-2.461 -3.261,-4.89 -4.921,-7.418 -0.426,-0.664 -0.864,-1.335 -1.293,-1.996 -27.219,-41.746 -56.165,-91.539 -74.719,-133.375 -0.196,-0.453 -19.77,-44.207 -18.059,-62.195 0.258,-2.742 0.863,-5.203 1.668,-7.473 0.039,-0.14 0.051,-0.336 0.117,-0.492 0.465,-1.269 1.266,-2.25 1.93,-3.363 0.566,-1 1.012,-2.125 1.734,-2.981 1.086,-1.304 2.512,-2.261 3.911,-3.25 0.543,-0.375 0.933,-0.918 1.511,-1.253 2.164,-1.215 4.61,-2.125 7.36,-2.68 0.039,0 4.765,-0.613 7.406,-0.613 5.828,0 12.027,1.644 18.426,4.91 3.937,1.965 7.625,4.324 10.968,7.004 2.086,1.695 3.977,3.558 5.918,5.386 0.969,0.922 2.02,1.739 2.965,2.696 2.282,2.304 4.375,4.75 6.449,7.238 0.528,0.648 1.125,1.219 1.641,1.879 2.063,2.586 3.926,5.297 5.738,8.043 0.469,0.695 0.996,1.355 1.45,2.066 1.671,2.668 3.152,5.442 4.601,8.227 0.504,0.969 1.059,1.879 1.528,2.859 1.265,2.602 2.343,5.297 3.39,8.004 0.516,1.309 1.102,2.563 1.582,3.895 0.879,2.531 1.567,5.132 2.266,7.718 0.453,1.618 0.984,3.188 1.359,4.832 0.567,2.618 0.957,5.282 1.383,7.938 0.258,1.711 0.637,3.363 0.816,5.101 0.368,3.11 0.454,6.266 0.547,9.426 0.047,1.336 0.231,2.617 0.231,3.981 2.121,-1.532 3.91,-3.317 5.648,-5.145 0.399,-0.414 0.918,-0.765 1.293,-1.187 1.953,-2.243 3.59,-4.703 4.961,-7.282 0.039,-0.089 0.117,-0.168 0.168,-0.246 1.359,-2.625 2.383,-5.398 3.109,-8.285 0.008,-0.066 0.047,-0.117 0.063,-0.18 0.715,-2.957 1.09,-5.996 1.09,-9.117 0,-2.953 -0.406,-5.894 -0.817,-8.832 -0.132,-0.855 -0.093,-1.738 -0.25,-2.593 -0.539,-2.989 -1.488,-5.954 -2.468,-8.891 -0.258,-0.781 -0.375,-1.582 -0.664,-2.344 -1.254,-3.348 -2.848,-6.633 -4.649,-9.867 -0.18,-0.313 -0.269,-0.637 -0.453,-0.934 -2.02,-3.535 -4.363,-6.984 -7.02,-10.336 -4.035,-5.05 -8.793,-9.605 -13.906,-13.855 -1.371,-1.141 -2.64,-2.383 -4.09,-3.445 -0.062,-0.051 -0.101,-0.075 -0.156,-0.114 -6.797,-5.023 -14.297,-9.328 -22.269,-12.707 h 0.039 l -0.039,-0.023 h 0.023 c 0.016,0.012 0.023,0.012 0.039,0.023 h 42.797 l -42.836,-0.023 c -0.016,0 -0.016,-0.016 -0.023,-0.016 h 147.011"
         style="fill:#ffffff;fill-opacity:1;fill-rule:nonzero;stroke:none"
         id="path22" />
      <path
         d="M 0.238281,122.934 V 297.449 C 14.3398,273.582 50.0664,265.336 75.2539,279.164 c -33.3398,7.445 -50.9922,22.906 -50.9922,50.59 0,75.625 118.3403,126.75 160.8403,126.75 20.253,0 39.882,-4.805 39.882,-21.316 0,-48.989 -202.0309,-199.184 -202.0309,-275.852 0,-14.211 8.8985,-28.695 22.2852,-36.402 H 0.238281"
         style="fill:#ffffff;fill-opacity:1;fill-rule:nonzero;stroke:none"
         id="path24" />
      <path
         d="M 0.238281,342.66 V 541.445 H 180.016 l 73.304,-84.156 c -11.64,6.5 -28.515,10.93 -51.875,10.93 C 83.5156,468.219 19.2383,387.27 0.238281,342.66"
         style="fill:#ffffff;fill-opacity:1;fill-rule:nonzero;stroke:none"
         id="path26" />
      <path
         d="M 185.641,170.996 V 122.93 h -84.493 c 28.125,8.621 57.024,26.414 84.493,48.066"
         style="fill:#ffffff;fill-opacity:1;fill-rule:nonzero;stroke:none"
         id="path28" />
      <path
         d="m 972.313,441.387 c -31.778,0 -31.391,-15.504 -31.391,-63.973 V 262.996 c 0,-54.035 -33.754,-94.57 -103.695,-94.57 -65.532,0 -104.875,31.793 -106.067,99.336 v 145.015 c 0,27.817 -15.097,28.203 -36.156,28.61 v 10.316 c 18.664,-0.387 36.949,-0.789 54.816,-0.789 18.27,0 36.571,0.402 56.434,0.789 v -10.316 c -21.055,-0.407 -36.156,-0.793 -36.156,-28.61 V 277.695 c 0,-47.281 15.488,-92.965 77.465,-92.965 65.96,0 72.304,50.84 72.304,78.266 v 113.231 c 0,65.16 -2.367,63.968 -37.742,65.16 v 10.316 c 16.688,-0.387 33.379,-0.789 50.059,-0.789 13.504,0 26.625,0.789 40.129,0.789 v -10.316"
         style="fill:#ffffff;fill-opacity:1;fill-rule:nonzero;stroke:none"
         id="path30" />
      <path
         d="m 992.176,303.117 c 0,14.699 -4.375,18.68 -23.047,26.227 v 7.551 c 17.098,5.554 33.371,10.722 52.461,19.07 1.17,0 2.36,-0.801 2.36,-3.973 v -25.82 c 22.66,16.277 42.13,29.793 68.75,29.793 33.76,0 45.69,-24.645 45.69,-55.629 V 197.832 c 0,-13.105 8.74,-13.105 19.86,-13.105 h 7.15 v -10.332 c -13.91,0 -27.81,0.8 -42.11,0.8 -14.3,0 -28.6,-0.402 -42.9,-0.8 v 10.332 h 7.15 c 11.12,0 19.06,0 19.06,13.105 v 102.895 c 0,22.66 -13.9,33.785 -36.56,33.785 -12.7,0 -32.97,-10.332 -46.09,-19.078 V 197.832 c 0,-13.105 8.75,-13.105 19.88,-13.105 h 7.15 v -10.332 c -13.91,0 -27.8,0.8 -42.11,0.8 -14.296,0 -28.6,-0.402 -42.897,-0.8 v 10.332 h 7.132 c 11.122,0 19.071,0 19.071,13.105 v 105.285"
         style="fill:#ffffff;fill-opacity:1;fill-rule:nonzero;stroke:none"
         id="path32" />
      <path
         d="m 1225.4,417.152 c -10.33,0 -19.46,9.532 -19.46,19.864 0,9.933 9.52,19.074 19.46,19.074 10.34,0 19.47,-8.352 19.47,-19.074 0,-10.739 -8.75,-19.864 -19.47,-19.864 m -42.51,-232.425 h 7.55 c 11.12,0 19.06,0 19.06,13.105 v 107.672 c 0,17.484 -5.96,19.867 -20.65,27.816 v 6.356 c 18.67,5.558 40.92,13.105 42.51,14.297 2.78,1.593 5.15,1.992 7.16,1.992 1.98,0 2.77,-2.383 2.77,-5.567 V 197.832 c 0,-13.105 8.73,-13.105 19.87,-13.105 h 6.75 v -10.332 c -13.5,0 -27.41,0.8 -41.72,0.8 -14.29,0 -28.6,-0.402 -43.3,-0.8 v 10.332"
         style="fill:#ffffff;fill-opacity:1;fill-rule:nonzero;stroke:none"
         id="path34" />
      <path
         d="m 1304.86,309.082 c -11.53,30.184 -15.49,30.586 -30.58,30.586 v 10.336 c 13.1,-0.406 26.6,-0.805 39.72,-0.805 13.9,0 27.41,0.805 41.32,0.805 v -10.336 c -17.87,0 -22.65,-1.191 -22.65,-10.719 0,-6.363 5.96,-18.676 12.72,-36.949 l 27.8,-75.492 32.98,81.84 c 4.37,11.125 7.55,21.457 7.95,30.601 0.39,8.336 -4.36,9.141 -21.05,10.719 v 10.336 c 9.53,-0.406 19.06,-0.805 28.6,-0.805 11.91,0 23.83,0.805 36.16,0.805 v -10.336 c -18.68,0 -24.65,-10.719 -31.8,-28.605 l -57.2,-142.637 h -9.94 l -54.03,140.656"
         style="fill:#ffffff;fill-opacity:1;fill-rule:nonzero;stroke:none"
         id="path36" />
      <path
         d="m 1559.15,296.773 c 9.92,0 11.11,5.149 11.11,9.915 0,20.265 -12.32,36.558 -34.58,36.558 -24.23,0 -40.91,-17.887 -45.68,-46.473 z m -70.34,-12.722 c -0.78,-3.582 -0.78,-9.539 0,-23.047 2.4,-37.746 26.61,-68.719 58.4,-68.719 21.86,0 38.95,11.899 53.65,26.61 l 5.55,-5.571 c -18.27,-24.238 -40.92,-44.89 -73.49,-44.89 -63.17,0 -75.9,61.195 -75.9,86.613 0,77.863 52.46,100.914 80.27,100.914 32.18,0 66.74,-20.27 67.13,-62.379 0,-2.383 0,-4.766 -0.39,-7.148 l -3.57,-2.383 h -111.65"
         style="fill:#ffffff;fill-opacity:1;fill-rule:nonzero;stroke:none"
         id="path38" />
      <path
         d="m 1623.5,184.727 h 10.71 c 11.14,0 19.09,0 19.09,13.105 V 309.48 c 0,12.317 -14.71,14.7 -20.68,17.883 v 5.957 c 29.01,12.313 44.9,22.645 48.48,22.645 2.4,0 3.59,-1.199 3.59,-5.164 v -35.77 h 0.77 c 9.95,15.504 26.64,40.934 50.88,40.934 9.92,0 22.63,-6.758 22.63,-21.055 0,-10.73 -7.54,-20.262 -18.67,-20.262 -12.32,0 -12.32,9.532 -26.23,9.532 -6.74,0 -28.98,-9.149 -28.98,-32.985 v -93.363 c 0,-13.105 7.92,-13.105 19.07,-13.105 h 22.22 v -10.332 c -21.83,0.398 -38.52,0.8 -55.61,0.8 -16.28,0 -32.97,-0.402 -47.27,-0.8 v 10.332"
         style="fill:#ffffff;fill-opacity:1;fill-rule:nonzero;stroke:none"
         id="path40" />
      <path
         d="m 1778.45,229.621 c 5.14,-26.219 21.06,-48.48 50.05,-48.48 23.45,0 32.19,14.308 32.19,28.218 0,46.883 -86.63,31.778 -86.63,95.743 0,22.25 17.9,50.863 61.6,50.863 12.7,0 29.79,-3.582 45.3,-11.524 l 2.76,-40.531 h -9.13 c -3.98,25.035 -17.88,39.34 -43.3,39.34 -15.9,0 -31,-9.141 -31,-26.219 0,-46.492 92.19,-32.191 92.19,-94.57 0,-26.223 -21.05,-54.035 -68.34,-54.035 -15.89,0 -34.58,5.566 -48.49,13.515 l -4.36,45.692 7.16,1.988"
         style="fill:#ffffff;fill-opacity:1;fill-rule:nonzero;stroke:none"
         id="path42" />
      <path
         d="m 1950.47,417.152 c -10.32,0 -19.46,9.532 -19.46,19.864 0,9.933 9.53,19.074 19.46,19.074 10.33,0 19.46,-8.352 19.46,-19.074 0,-10.739 -8.72,-19.864 -19.46,-19.864 m -42.51,-232.425 h 7.55 c 11.12,0 19.07,0 19.07,13.105 v 107.672 c 0,17.484 -5.96,19.867 -20.67,27.816 v 6.356 c 18.68,5.558 40.93,13.105 42.53,14.297 2.77,1.593 5.15,1.992 7.16,1.992 1.97,0 2.78,-2.383 2.78,-5.567 V 197.832 c 0,-13.105 8.72,-13.105 19.84,-13.105 h 6.76 v -10.332 c -13.51,0 -27.41,0.8 -41.71,0.8 -14.31,0 -28.6,-0.402 -43.31,-0.8 v 10.332"
         style="fill:#ffffff;fill-opacity:1;fill-rule:nonzero;stroke:none"
         id="path44" />
      <path
         d="m 2057.35,223.258 c 0,-26.211 14.29,-33.371 25.03,-33.371 10.72,0 18.67,3.574 27.81,11.523 l 5.96,-5.957 c -13.9,-14.305 -31.38,-27.027 -52.84,-27.027 -25.42,0 -37.75,13.519 -37.75,36.961 v 123.172 h -26.22 v 6.343 c 20.66,15.887 32.98,23.442 53.24,55.621 h 4.77 v -40.519 h 59.19 v -21.445 h -59.19 V 223.258"
         style="fill:#ffffff;fill-opacity:1;fill-rule:nonzero;stroke:none"
         id="path46" />
      <path
         d="m 2132.83,350 c 15.5,-0.387 30.59,-0.785 46.1,-0.785 11.9,0 23.83,0.785 35.74,0.785 v -10.332 c -7.55,-0.793 -21.83,-0.387 -21.83,-10.723 0,-11.125 35.75,-90.59 40.11,-106.871 h 0.79 c 8.35,23.035 39.33,89.789 39.33,100.914 0,16.68 -12.69,16.68 -22.23,16.68 V 350 c 12.3,-0.387 25.01,-0.785 37.34,-0.785 9.93,0 19.85,0.398 29.81,0.785 v -10.332 c -18.68,0.398 -24.24,-10.324 -31.4,-25.422 L 2196.8,103.672 c -5.97,-13.8986 -13.91,-19.8556 -25.42,-19.8556 -11.91,0 -19.48,8.7305 -19.48,19.0626 0,9.531 8.34,19.863 19.07,19.863 6.77,0 10.73,-0.801 16.29,-5.957 19.47,41.324 27.82,63.957 27.82,63.957 0,0.399 -52.44,135.086 -57.2,144.227 -5.59,9.933 -12.33,15.89 -25.05,14.699 V 350"
         style="fill:#ffffff;fill-opacity:1;fill-rule:nonzero;stroke:none"
         id="path48" />
      <path
         d="m 2437.98,173.301 c 40.59,0 57.87,55.347 57.87,87.734 0,22.332 -8.49,44.336 -35.53,44.336 -42.14,0 -58.81,-53.144 -58.81,-87.73 0,-23.594 8.79,-44.34 36.47,-44.34 m 22.64,140.254 c 36.48,0 60.38,-27.672 60.38,-63.84 0,-44.34 -37.73,-84.598 -82.7,-84.598 -37.75,0 -61.97,25.16 -61.97,63.219 0,45.281 38.71,85.219 84.29,85.219"
         style="fill:#ffffff;fill-opacity:1;fill-rule:nonzero;stroke:none"
         id="path50" />
      <path
         d="m 2627.93,308.836 -3.77,-12.895 h -34.27 l -52.52,-192.152 -19.19,-5.6484 -0.95,1.8794 48.43,195.921 h -28.29 l 3.44,12.895 h 27.68 c 10.07,34.914 18.24,61.016 47.19,86.18 8.48,7.547 21.69,15.086 33.64,15.086 6.29,0 12.88,-2.516 12.88,-10.063 0,-4.406 -3.13,-15.09 -8.79,-15.09 -5.97,0 -12.58,6.285 -19.82,6.285 -19.17,0 -24.83,-21.382 -29.25,-39.316 l -11.01,-43.082 h 34.6"
         style="fill:#ffffff;fill-opacity:1;fill-rule:nonzero;stroke:none"
         id="path52" />
      <path
         d="m 2912.87,228.82 c 35.75,74.305 74.3,147.407 107.27,222.883 10.72,-0.387 21.84,-0.785 32.58,-0.785 11.51,0 23.44,0.785 34.96,0.785 v -10.316 c -13.51,0 -22.65,-0.793 -27.81,-4.766 -5.17,-3.976 -7.54,-10.738 -7.54,-23.84 0,-62.777 3.56,-129.531 5.15,-189.523 0.81,-29.797 3.58,-38.528 43.32,-38.528 v -10.332 c -21.86,0 -43.71,0.801 -65.56,0.801 -19.48,0 -38.54,-0.41 -58.01,-0.801 v 10.332 c 13.9,0 23.83,0 30.59,3.575 7.15,3.972 10.34,11.511 10.34,27.004 l -2.79,189.519 h -0.8 l -93.75,-194.68 c -4.38,-9.531 -12.33,-29 -15.5,-39.324 h -7.95 c -33.77,75.883 -71.91,150.172 -109.66,225.266 h -0.79 l -3.17,-143.828 c 0,-5.153 -0.4,-19.461 -0.4,-25.032 0,-19.46 1.98,-30.183 8.34,-35.75 6.36,-5.57 16.28,-6.75 32.19,-6.75 v -10.332 c -16.3,0 -32.99,0.801 -49.27,0.801 -17.48,0 -35.37,-0.41 -52.85,-0.801 v 10.332 c 28.21,0 45.69,6.75 47.28,59.981 1.58,54.43 4.36,108.461 4.36,162.898 0,13.914 -1.97,22.653 -7.55,27.418 -5.55,4.766 -14.29,6.36 -27.39,6.36 v 10.316 c 13.9,-0.387 28.2,-0.785 42.11,-0.785 8.34,0 17.08,0.785 25.42,0.785 L 2912.87,228.82"
         style="fill:#ffffff;fill-opacity:1;fill-rule:nonzero;stroke:none"
         id="path54" />
      <path
         d="m 3216.42,262.598 c -20.27,-7.95 -71.92,-17.082 -71.92,-46.875 0,-15.5 12.71,-28.618 28.2,-28.618 18.67,0 30.6,11.524 43.72,23.051 z m 64.35,-72.711 c -11.12,-10.332 -23.44,-21.453 -39.33,-21.453 -16.3,0 -23.85,15.093 -24.64,29.406 -18.67,-17.094 -36.55,-29.406 -61.18,-29.406 -25.42,0 -42.9,17.476 -42.9,38.535 1.58,31.773 17.87,37.746 103.7,67.14 v 26.239 c 0,22.246 -13.12,34.16 -38.54,34.16 -17.5,0 -29.41,-9.934 -30.21,-27.82 0,-11.122 -12.7,-16.688 -22.25,-16.688 -5.96,0 -7.15,5.18 -7.15,7.965 0,21.039 17.89,30.984 45.7,45.281 13.91,7.156 20.65,12.715 35.75,12.715 17.87,0 48.47,-11.523 48.47,-33.367 V 212.539 c 0,-16.297 5.57,-22.652 14.29,-22.652 5.19,0 11.13,2.398 14.72,6.75 l 3.57,-6.75"
         style="fill:#ffffff;fill-opacity:1;fill-rule:nonzero;stroke:none"
         id="path56" />
      <path
         d="m 3304.6,229.621 c 5.17,-26.219 21.07,-48.48 50.08,-48.48 23.43,0 32.17,14.308 32.17,28.218 0,46.883 -86.61,31.778 -86.61,95.743 0,22.25 17.87,50.863 61.57,50.863 12.72,0 29.8,-3.582 45.3,-11.524 l 2.78,-40.531 h -9.14 c -3.96,25.035 -17.87,39.34 -43.3,39.34 -15.89,0 -30.99,-9.141 -30.99,-26.219 0,-46.492 92.17,-32.191 92.17,-94.57 0,-26.223 -21.05,-54.035 -68.33,-54.035 -15.89,0 -34.56,5.566 -48.46,13.515 l -4.38,45.692 7.14,1.988"
         style="fill:#ffffff;fill-opacity:1;fill-rule:nonzero;stroke:none"
         id="path58" />
      <path
         d="m 3453.2,229.621 c 5.14,-26.219 21.06,-48.48 50.07,-48.48 23.43,0 32.17,14.308 32.17,28.218 0,46.883 -86.61,31.778 -86.61,95.743 0,22.25 17.89,50.863 61.58,50.863 12.7,0 29.8,-3.582 45.3,-11.524 l 2.78,-40.531 h -9.14 c -3.97,25.035 -17.88,39.34 -43.3,39.34 -15.89,0 -31,-9.141 -31,-26.219 0,-46.492 92.17,-32.191 92.17,-94.57 0,-26.223 -21.04,-54.035 -68.34,-54.035 -15.88,0 -34.56,5.566 -48.46,13.515 l -4.39,45.692 7.17,1.988"
         style="fill:#ffffff;fill-opacity:1;fill-rule:nonzero;stroke:none"
         id="path60" />
      <path
         d="m 3698.34,262.598 c -20.26,-7.95 -71.92,-17.082 -71.92,-46.875 0,-15.5 12.72,-28.618 28.2,-28.618 18.68,0 30.6,11.524 43.72,23.051 z m 64.36,-72.711 c -11.12,-10.332 -23.44,-21.453 -39.33,-21.453 -16.3,0 -23.85,15.093 -24.64,29.406 -18.67,-17.094 -36.56,-29.406 -61.19,-29.406 -25.42,0 -42.9,17.476 -42.9,38.535 1.58,31.773 17.87,37.746 103.7,67.14 v 26.239 c 0,22.246 -13.12,34.16 -38.54,34.16 -17.49,0 -29.41,-9.934 -30.21,-27.82 0,-11.122 -12.7,-16.688 -22.24,-16.688 -5.96,0 -7.15,5.18 -7.15,7.965 0,21.039 17.88,30.984 45.7,45.281 13.9,7.156 20.65,12.715 35.75,12.715 17.87,0 48.47,-11.523 48.47,-33.367 V 212.539 c 0,-16.297 5.56,-22.652 14.29,-22.652 5.18,0 11.13,2.398 14.72,6.75 l 3.57,-6.75"
         style="fill:#ffffff;fill-opacity:1;fill-rule:nonzero;stroke:none"
         id="path62" />
      <path
         d="m 3921.22,209.754 c -19.46,-22.645 -46.08,-41.316 -77.48,-41.316 -41.3,0 -79.06,40.125 -79.06,82.234 0,57.613 41.33,105.293 98.54,105.293 20.27,0 53.63,-6.356 53.63,-27.414 0,-9.145 -5.58,-17.485 -15.09,-17.485 -16.69,0 -15.91,32.18 -53.25,32.18 -34.17,0 -52.04,-38.144 -52.04,-68.332 0,-40.93 26.22,-77.082 69.54,-77.082 20.26,0 33.36,7.156 48.46,18.672 l 6.75,-6.75"
         style="fill:#ffffff;fill-opacity:1;fill-rule:nonzero;stroke:none"
         id="path64" />
      <path
         d="m 3954.19,419.137 c 0,25.82 -5.96,26.621 -21.06,30.984 v 6.359 c 15.92,5.165 32.58,12.313 40.92,17.079 4.38,2.382 7.55,4.375 8.76,4.375 2.38,0 3.16,-2.383 3.16,-5.567 V 321.004 c 3.58,3.176 29,34.961 61.21,34.961 34.56,0 53.21,-25.43 53.21,-60.004 v -98.129 c 0,-13.105 8.76,-13.105 19.87,-13.105 h 7.16 v -10.332 c -13.9,0 -27.81,0.8 -42.91,0.8 -14.29,0 -28.62,-0.402 -42.91,-0.8 v 10.332 h 7.15 c 18.68,0 19.87,4.363 19.87,43.304 v 44.895 c 0,29.004 -2.79,59.203 -38.94,59.203 -18.66,0 -34.57,-13.906 -43.71,-22.262 V 197.832 c 0,-13.105 8.76,-13.105 19.86,-13.105 h 7.16 v -10.332 c -13.89,0 -27.8,0.8 -42.11,0.8 -14.28,0 -28.62,-0.402 -42.9,-0.8 v 10.332 h 7.15 c 11.13,0 19.06,0 19.06,13.105 v 221.305"
         style="fill:#ffffff;fill-opacity:1;fill-rule:nonzero;stroke:none"
         id="path66" />
      <path
         d="m 4299.45,196.242 c 0,-7.16 4.38,-7.547 11.13,-7.547 4.78,0 10.72,0.387 15.9,0.387 v -8.336 c -17.1,-1.582 -49.66,-9.922 -57.21,-12.32 l -2,1.207 v 32.18 c -23.84,-19.473 -42.11,-33.387 -70.32,-33.387 -21.45,0 -43.71,13.914 -43.71,47.297 v 101.699 c 0,10.336 -1.59,20.266 -23.82,22.246 v 7.555 c 14.29,0.398 46.08,2.781 51.25,2.781 4.36,0 4.36,-2.781 4.36,-11.527 V 235.984 c 0,-11.925 0,-46.097 34.56,-46.097 13.52,0 31.4,10.332 48.09,24.238 v 106.871 c 0,7.953 -19.08,12.328 -33.39,16.289 v 7.149 c 35.75,2.382 58.01,5.57 61.99,5.57 3.17,0 3.17,-2.781 3.17,-7.149 V 196.242"
         style="fill:#ffffff;fill-opacity:1;fill-rule:nonzero;stroke:none"
         id="path68" />
      <path
         d="m 4363.02,229.621 c 5.17,-26.219 21.06,-48.48 50.05,-48.48 23.46,0 32.19,14.308 32.19,28.218 0,46.883 -86.6,31.778 -86.6,95.743 0,22.25 17.87,50.863 61.57,50.863 12.7,0 29.8,-3.582 45.3,-11.524 l 2.78,-40.531 h -9.14 c -3.98,25.035 -17.87,39.34 -43.3,39.34 -15.89,0 -31,-9.141 -31,-26.219 0,-46.492 92.19,-32.191 92.19,-94.57 0,-26.223 -21.06,-54.035 -68.35,-54.035 -15.88,0 -34.57,5.566 -48.47,13.515 l -4.38,45.692 7.16,1.988"
         style="fill:#ffffff;fill-opacity:1;fill-rule:nonzero;stroke:none"
         id="path70" />
      <path
         d="m 4603.39,296.773 c 9.93,0 11.11,5.149 11.11,9.915 0,20.265 -12.31,36.558 -34.56,36.558 -24.24,0 -40.92,-17.887 -45.7,-46.473 z m -70.32,-12.722 c -0.8,-3.582 -0.8,-9.539 0,-23.047 2.38,-37.746 26.63,-68.719 58.39,-68.719 21.86,0 38.94,11.899 53.65,26.61 l 5.54,-5.571 c -18.27,-24.238 -40.91,-44.89 -73.48,-44.89 -63.18,0 -75.9,61.195 -75.9,86.613 0,77.863 52.45,100.914 80.28,100.914 32.19,0 66.74,-20.27 67.13,-62.379 0,-2.383 0,-4.766 -0.39,-7.148 l -3.58,-2.383 h -111.64"
         style="fill:#ffffff;fill-opacity:1;fill-rule:nonzero;stroke:none"
         id="path72" />
      <path
         d="m 4723.76,223.258 c 0,-26.211 14.3,-33.371 25.05,-33.371 10.71,0 18.66,3.574 27.8,11.523 l 5.96,-5.957 c -13.91,-14.305 -31.39,-27.027 -52.85,-27.027 -25.42,0 -37.73,13.519 -37.73,36.961 v 123.172 h -26.22 v 6.343 c 20.65,15.887 32.96,23.442 53.23,55.621 h 4.76 v -40.519 h 59.2 v -21.445 h -59.2 V 223.258"
         style="fill:#ffffff;fill-opacity:1;fill-rule:nonzero;stroke:none"
         id="path74" />
      <path
         d="m 4858.05,223.258 c 0,-26.211 14.31,-33.371 25.05,-33.371 10.7,0 18.67,3.574 27.79,11.523 l 5.96,-5.957 c -13.91,-14.305 -31.39,-27.027 -52.83,-27.027 -25.43,0 -37.75,13.519 -37.75,36.961 v 123.172 h -26.22 v 6.343 c 20.65,15.887 32.97,23.442 53.24,55.621 h 4.76 v -40.519 h 59.22 v -21.445 h -59.22 V 223.258"
         style="fill:#ffffff;fill-opacity:1;fill-rule:nonzero;stroke:none"
         id="path76" />
      <path
         d="m 4942.68,229.621 c 5.16,-26.219 21.05,-48.48 50.07,-48.48 23.44,0 32.18,14.308 32.18,28.218 0,46.883 -86.62,31.778 -86.62,95.743 0,22.25 17.87,50.863 61.59,50.863 12.7,0 29.79,-3.582 45.29,-11.524 l 2.77,-40.531 h -9.13 c -3.99,25.035 -17.88,39.34 -43.3,39.34 -15.9,0 -31,-9.141 -31,-26.219 0,-46.492 92.17,-32.191 92.17,-94.57 0,-26.223 -21.04,-54.035 -68.34,-54.035 -15.88,0 -34.56,5.566 -48.46,13.515 l -4.39,45.692 7.17,1.988"
         style="fill:#ffffff;fill-opacity:1;fill-rule:nonzero;stroke:none"
         id="path78" />
    </g>
  </g>
</svg>
