<svg width="40" height="41" xmlns="http://www.w3.org/2000/svg" xmlns:xlink="http://www.w3.org/1999/xlink" xml:space="preserve" overflow="hidden"><defs><clipPath id="clip0"><rect x="444" y="389" width="40" height="41"/></clipPath><clipPath id="clip1"><rect x="444" y="390" width="40" height="40"/></clipPath><clipPath id="clip2"><rect x="444" y="390" width="40" height="40"/></clipPath><clipPath id="clip3"><rect x="444" y="390" width="40" height="40"/></clipPath></defs><g clip-path="url(#clip0)" transform="translate(-444 -389)"><g clip-path="url(#clip1)"><g clip-path="url(#clip2)"><g clip-path="url(#clip3)"><path d="M444 390 484 390 484 430 444 430Z" fill="#B0084D" fill-rule="evenodd" fill-opacity="1"/><path d="M468.5 412C470.43 412 472 413.57 472 415.5 472 417.43 470.43 419 468.5 419 466.57 419 465 417.43 465 415.5 465 413.57 466.57 412 468.5 412L468.5 412ZM468.5 420C470.981 420 473 417.981 473 415.5 473 413.019 470.981 411 468.5 411 466.019 411 464 413.019 464 415.5 464 417.981 466.019 420 468.5 420ZM470.023 400.88 473.084 407 466.963 407 470.023 400.88ZM466.154 408 473.893 408C474.065 408 474.227 407.91 474.318 407.763 474.409 407.615 474.417 407.432 474.34 407.276L470.471 399.538C470.301 399.2 469.746 399.2 469.576 399.538L465.707 407.276C465.63 407.432 465.638 407.615 465.729 407.763 465.82 407.91 465.981 408 466.154 408ZM455 413 462 413 462 406 455 406 455 413ZM454.5 414 462.5 414C462.776 414 463 413.776 463 413.5L463 405.5C463 405.224 462.776 405 462.5 405L454.5 405C454.224 405 454 405.224 454 405.5L454 413.5C454 413.776 454.224 414 454.5 414ZM452 422 476 422 476 398 452 398 452 422ZM476.5 397 451.5 397C451.224 397 451 397.224 451 397.5L451 422.5C451 422.776 451.224 423 451.5 423L476.5 423C476.776 423 477 422.776 477 422.5L477 397.5C477 397.224 476.776 397 476.5 397Z" fill="#FFFFFF" fill-rule="evenodd" fill-opacity="1"/></g></g></g></g></svg>