<svg width="41" height="42" xmlns="http://www.w3.org/2000/svg" xmlns:xlink="http://www.w3.org/1999/xlink" xml:space="preserve" overflow="hidden"><g transform="translate(-109 -274)"><g><g><g><g><path d="M110 275 150 275 150 315 110 315Z" fill="#ED7100" fill-rule="evenodd" fill-opacity="1"/><path d="M128.021 294.495C128.021 294.34 127.95 294.198 127.833 294.104L124.879 291.151 124.172 291.858 126.31 293.995 117 293.995 117 294.995 126.314 294.995 124.172 297.137 124.879 297.844 127.848 294.875C127.956 294.781 128.021 294.643 128.021 294.495ZM143.986 293.995 134.675 293.995 136.813 291.858 136.106 291.151 133.137 294.12C133.03 294.213 132.964 294.351 132.964 294.499 132.964 294.654 133.036 294.797 133.153 294.89L136.106 297.844 136.813 297.137 134.671 294.995 143.986 294.995 143.986 293.995ZM130.996 306.324 130.996 297.01 129.996 297.01 129.996 306.32 127.858 304.183 127.151 304.89 130.12 307.857C130.213 307.966 130.352 308.032 130.5 308.032 130.656 308.032 130.8 307.959 130.893 307.841L133.844 304.89 133.137 304.183 130.996 306.324ZM127.858 284.837 127.151 284.13 130.103 281.179C130.285 280.947 130.683 280.939 130.877 281.162L133.844 284.13 133.137 284.837 130.996 282.696 130.996 292.01 129.996 292.01 129.996 282.7 127.858 284.837Z" fill="#FFFFFF" fill-rule="evenodd" fill-opacity="1"/></g></g></g></g></g></svg>