<svg width="41" height="42" xmlns="http://www.w3.org/2000/svg" xmlns:xlink="http://www.w3.org/1999/xlink" xml:space="preserve" overflow="hidden"><defs><clipPath id="clip0"><rect x="444" y="274" width="41" height="42"/></clipPath><clipPath id="clip1"><rect x="445" y="275" width="40" height="40"/></clipPath><clipPath id="clip2"><rect x="445" y="275" width="40" height="40"/></clipPath><clipPath id="clip3"><rect x="445" y="275" width="40" height="40"/></clipPath></defs><g clip-path="url(#clip0)" transform="translate(-444 -274)"><g clip-path="url(#clip1)"><g clip-path="url(#clip2)"><g clip-path="url(#clip3)"><path d="M445 275 485 275 485 315 445 315Z" fill="#127EBA" fill-rule="evenodd" fill-opacity="1"/><path d="M464.536 297.049C465.642 297.049 466.542 297.948 466.542 299.054 466.542 300.16 465.642 301.06 464.536 301.06 463.43 301.06 462.53 300.16 462.53 299.054 462.53 297.948 463.43 297.049 464.536 297.049L464.536 297.049ZM464.012 302.007 464.012 305.501 465.012 305.501 465.012 302.012C466.442 301.782 467.542 300.549 467.542 299.054 467.542 297.397 466.193 296.049 464.536 296.049 462.879 296.049 461.53 297.397 461.53 299.054 461.53 300.532 462.604 301.757 464.012 302.007ZM455 308.014 474.012 308.014 474.012 293 455 293 455 308.014ZM459.046 287.484C459.046 284.46 461.506 282 464.529 282 467.553 282 470.012 284.46 470.012 287.484L470.012 292 459.046 292 459.046 287.484ZM474.512 292 471.012 292 471.012 287.484C471.012 283.908 468.103 281 464.529 281 460.954 281 458.046 283.908 458.046 287.484L458.046 292 454.5 292C454.223 292 454 292.224 454 292.5L454 308.514C454 308.79 454.223 309.014 454.5 309.014L474.512 309.014C474.788 309.014 475.012 308.79 475.012 308.514L475.012 292.5C475.012 292.224 474.788 292 474.512 292Z" fill="#FFFFFF" fill-rule="evenodd" fill-opacity="1"/></g></g></g></g></svg>