<svg width="41" height="42" xmlns="http://www.w3.org/2000/svg" xmlns:xlink="http://www.w3.org/1999/xlink" xml:space="preserve" overflow="hidden"><defs><clipPath id="clip0"><rect x="648" y="274" width="41" height="42"/></clipPath><clipPath id="clip1"><rect x="649" y="275" width="40" height="40"/></clipPath><clipPath id="clip2"><rect x="649" y="275" width="40" height="40"/></clipPath><clipPath id="clip3"><rect x="649" y="275" width="40" height="40"/></clipPath></defs><g clip-path="url(#clip0)" transform="translate(-648 -274)"><g clip-path="url(#clip1)"><g clip-path="url(#clip2)"><g clip-path="url(#clip3)"><path d="M649 275 689 275 689 315 649 315Z" fill="#3F8624" fill-rule="evenodd" fill-opacity="1"/><path d="M668.536 297.049C669.642 297.049 670.542 297.948 670.542 299.054 670.542 300.16 669.642 301.06 668.536 301.06 667.43 301.06 666.53 300.16 666.53 299.054 666.53 297.948 667.43 297.049 668.536 297.049L668.536 297.049ZM668.012 302.007 668.012 305.501 669.012 305.501 669.012 302.012C670.442 301.782 671.542 300.549 671.542 299.054 671.542 297.397 670.193 296.049 668.536 296.049 666.879 296.049 665.53 297.397 665.53 299.054 665.53 300.532 666.604 301.757 668.012 302.007ZM659 308.014 678.012 308.014 678.012 293 659 293 659 308.014ZM663.046 287.484C663.046 284.46 665.506 282 668.529 282 671.553 282 674.012 284.46 674.012 287.484L674.012 292 663.046 292 663.046 287.484ZM678.512 292 675.012 292 675.012 287.484C675.012 283.908 672.103 281 668.529 281 664.954 281 662.046 283.908 662.046 287.484L662.046 292 658.5 292C658.223 292 658 292.224 658 292.5L658 308.514C658 308.79 658.223 309.014 658.5 309.014L678.512 309.014C678.788 309.014 679.012 308.79 679.012 308.514L679.012 292.5C679.012 292.224 678.788 292 678.512 292Z" fill="#FFFFFF" fill-rule="evenodd" fill-opacity="1"/></g></g></g></g></svg>