<svg width="41" height="42" xmlns="http://www.w3.org/2000/svg" xmlns:xlink="http://www.w3.org/1999/xlink" xml:space="preserve" overflow="hidden"><defs><clipPath id="clip0"><rect x="444" y="158" width="41" height="42"/></clipPath><clipPath id="clip1"><rect x="445" y="159" width="40" height="40"/></clipPath><clipPath id="clip2"><rect x="445" y="159" width="40" height="40"/></clipPath><clipPath id="clip3"><rect x="445" y="159" width="40" height="40"/></clipPath></defs><g clip-path="url(#clip0)" transform="translate(-444 -158)"><g clip-path="url(#clip1)"><g clip-path="url(#clip2)"><g clip-path="url(#clip3)"><path d="M445 159 485 159 485 199 445 199Z" fill="#127EBA" fill-rule="evenodd" fill-opacity="1"/><path d="M459 179.026 459 170.026 474.293 170.026 470.146 174.172C469.951 174.368 469.951 174.684 470.146 174.88L474.293 179.026 459 179.026ZM471.207 174.526 475.854 169.88C475.996 169.736 476.039 169.522 475.962 169.335 475.885 169.148 475.702 169.026 475.5 169.026L459 169.026 459 167.97C459.596 167.76 460.026 167.198 460.026 166.531 460.026 165.687 459.34 165 458.495 165 457.65 165 456.963 165.687 456.963 166.531 456.963 167.201 457.398 167.766 458 167.973L458 192.026 455 192.026 455 193.026 462 193.026 462 192.026 459 192.026 459 180.026 475.5 180.026C475.702 180.026 475.885 179.904 475.962 179.717 476.039 179.53 475.996 179.316 475.854 179.172L471.207 174.526Z" fill="#FFFFFF" fill-rule="evenodd" fill-opacity="1"/></g></g></g></g></svg>