<svg width="41" height="42" xmlns="http://www.w3.org/2000/svg" xmlns:xlink="http://www.w3.org/1999/xlink" xml:space="preserve" overflow="hidden"><defs><clipPath id="clip0"><rect x="241" y="274" width="41" height="42"/></clipPath><clipPath id="clip1"><rect x="242" y="275" width="40" height="40"/></clipPath><clipPath id="clip2"><rect x="242" y="275" width="40" height="40"/></clipPath><clipPath id="clip3"><rect x="242" y="275" width="40" height="40"/></clipPath></defs><g clip-path="url(#clip0)" transform="translate(-241 -274)"><g clip-path="url(#clip1)"><g clip-path="url(#clip2)"><g clip-path="url(#clip3)"><path d="M242 275 282 275 282 315 242 315Z" fill="#3F8624" fill-rule="evenodd" fill-opacity="1"/><path d="M270.993 302.995 253.487 302.976C251.121 302.974 249.154 301.129 249.012 298.775 249.004 298.652 249 298.526 249 298.397 249 295.299 251.091 294.287 252.337 293.959 252.577 293.896 252.735 293.666 252.707 293.419 252.676 293.149 252.659 292.875 252.659 292.596 252.659 290.132 254.308 287.482 256.415 286.563 257.359 286.15 258.232 285.986 259.023 285.986 261.276 285.986 262.867 287.315 263.561 288.033 264.329 288.826 264.927 289.838 265.34 291.042 265.4 291.219 265.555 291.347 265.74 291.374 265.918 291.401 266.109 291.323 266.219 291.171 266.807 290.35 267.766 289.982 268.659 290.239 269.782 290.56 270.516 291.727 270.62 293.307 270.578 293.576 270.759 293.829 271.027 293.877 272.222 294.089 275 294.957 275 298.44 275 302.589 271.114 302.982 270.993 302.995ZM271.594 292.974C271.379 291.067 270.4 289.696 268.934 289.278 267.899 288.982 266.811 289.245 265.989 289.95 265.553 288.936 264.979 288.06 264.28 287.338 262.023 285.005 258.933 284.372 256.014 285.646 253.531 286.73 251.659 289.718 251.659 292.596 251.659 292.77 251.665 292.943 251.676 293.114 250.319 293.573 248 294.875 248 298.397 248 298.549 248.004 298.696 248.014 298.838 248.188 301.716 250.593 303.973 253.486 303.976L271.034 303.993C271.084 303.989 276 303.519 276 298.44 276 294.502 273.003 293.314 271.594 292.974ZM259 299.995 264 299.995 264 295.995 259 295.995 259 299.995ZM260 294.495C260 293.668 260.673 292.995 261.5 292.995 262.327 292.995 263 293.668 263 294.495L263 294.995 260 294.995 260 294.495ZM264.5 294.995 264 294.995 264 294.495C264 293.117 262.879 291.995 261.5 291.995 260.121 291.995 259 293.117 259 294.495L259 294.995 258.5 294.995C258.223 294.995 258 295.219 258 295.495L258 300.495C258 300.771 258.223 300.995 258.5 300.995L264.5 300.995C264.776 300.995 265 300.771 265 300.495L265 295.495C265 295.219 264.776 294.995 264.5 294.995Z" fill="#FFFFFF" fill-rule="evenodd" fill-opacity="1"/></g></g></g></g></svg>