<svg width="135" height="39" viewBox="0 0 135 39" fill="none" xmlns="http://www.w3.org/2000/svg">
<path d="M131.952 9.45391C133.635 9.45391 135 8.08917 135 6.40567C135 4.72217 133.635 3.35742 131.952 3.35742C130.268 3.35742 128.904 4.72217 128.904 6.40567C128.904 8.08917 130.268 9.45391 131.952 9.45391Z" fill="#FF7C66"/>
<path d="M42.1492 13.5947C49.3772 13.5947 54.7764 19.0158 54.7764 25.9763C54.7764 32.9368 49.3772 38.3579 42.1492 38.3579C34.9211 38.3579 29.522 32.9368 29.522 25.9763C29.522 19.0158 34.9211 13.5947 42.1492 13.5947ZM42.1492 33.7482C46.6316 33.7482 49.8729 30.3579 49.8729 25.9719C49.8729 21.586 46.6272 18.1956 42.1492 18.1956C37.6711 18.1956 34.4255 21.586 34.4255 25.9719C34.4255 30.3579 37.6711 33.7482 42.1492 33.7482Z" fill="white"/>
<path d="M70.3026 13.5947C77.5307 13.5947 82.9298 19.0158 82.9298 25.9763C82.9298 32.9368 77.5307 38.3579 70.3026 38.3579C63.0745 38.3579 57.6754 32.9368 57.6754 25.9763C57.6754 19.0158 63.0745 13.5947 70.3026 13.5947ZM70.3026 33.7482C74.7851 33.7482 78.0263 30.3579 78.0263 25.9719C78.0263 21.586 74.7807 18.1956 70.3026 18.1956C65.8245 18.1956 62.5789 21.586 62.5789 25.9719C62.5789 30.3579 65.8245 33.7482 70.3026 33.7482Z" fill="white"/>
<path d="M129.5 37.3223V14.1337C129.5 13.8355 129.741 13.5986 130.035 13.5986H133.864C134.162 13.5986 134.399 13.8399 134.399 14.1337V37.3223C134.399 37.6206 134.158 37.8574 133.864 37.8574H130.035C129.737 37.8574 129.5 37.6162 129.5 37.3223Z" fill="white"/>
<path d="M115.18 13.5939C111.096 13.5939 108.123 15.6992 106.689 18.0237C105.18 15.2737 102.307 13.5939 98.2193 13.5939C94.1316 13.5939 91.7807 15.8702 91.0131 17.0851V13.3264C91.0131 12.9141 90.5658 12.6553 90.2061 12.8615L86.2281 15.1597C86.1403 15.2123 86.0877 15.3044 86.0877 15.4053V37.322C86.0877 37.6202 86.3289 37.8571 86.6228 37.8571H90.4781C90.7763 37.8571 91.0131 37.6158 91.0131 37.322V24.4623C91.0131 20.5237 93.9079 18.2474 97.4517 18.2474C100.996 18.2474 103.048 20.5237 103.048 24.4623V37.322C103.048 37.6202 103.289 37.8571 103.583 37.8571H107.439C107.737 37.8571 107.974 37.6158 107.974 37.322V24.1685C108.096 20.4316 110.943 18.2518 114.412 18.2518C117.882 18.2518 120.009 20.5281 120.009 24.4667V37.3264C120.009 37.6246 120.25 37.8615 120.544 37.8615H124.399C124.697 37.8615 124.934 37.6202 124.934 37.3264V23.4272C124.934 17.6597 121.518 13.5983 115.18 13.5983V13.5939Z" fill="white"/>
<path d="M13.6667 13.5943C10.1842 13.5943 7.13158 14.8531 4.89912 16.932V0.537303C4.89912 0.125022 4.45175 -0.13375 4.0921 0.0723907L0.140351 2.35309C0.0526316 2.40572 0 2.49783 0 2.59871V37.3224C0 37.6206 0.241228 37.8575 0.535088 37.8575H4.36403C4.66228 37.8575 4.89912 37.6162 4.89912 37.3224V35.0154C7.13158 37.0943 10.1842 38.3531 13.6667 38.3531C20.8947 38.3531 26.2939 32.932 26.2939 25.9715C26.2939 19.011 20.8947 13.5899 13.6667 13.5899V13.5943ZM13.6667 33.7478C9.18421 33.7478 5.94298 30.3575 5.94298 25.9715C5.94298 21.5855 9.1886 18.1952 13.6667 18.1952C18.1447 18.1952 21.3904 21.5855 21.3904 25.9715C21.3904 30.3575 18.1447 33.7478 13.6667 33.7478Z" fill="white"/>
</svg>
