<?xml version="1.0" encoding="utf-8"?>
<!-- Generator: Adobe Illustrator 27.9.0, SVG Export Plug-In . SVG Version: 6.00 Build 0)  -->
<svg version="1.1" id="Layer_1" xmlns="http://www.w3.org/2000/svg" xmlns:xlink="http://www.w3.org/1999/xlink" x="0px" y="0px"
	 width="220px" height="78px" viewBox="0 0 220 78" style="enable-background:new 0 0 220 78;" xml:space="preserve">
<style type="text/css">
	.st0{enable-background:new    ;}
	.st1{fill:#242436;}
	.st2{fill:#3048EA;}
	.st3{fill:#FFFFFF;}
</style>
<g>
	<g class="st0">
		<path class="st1" d="M1.2,19v-5.6h24.3V19h-8.7v23.1H10V19H1.2z"/>
	</g>
	<g class="st0">
		<path class="st1" d="M35.3,29.8v12.3h-6.9V13.4h6.6v11.1h0.2c0.5-1.3,1.3-2.4,2.4-3.1c1.1-0.7,2.5-1.1,4.1-1.1c1.5,0,2.8,0.3,4,1
			c1.1,0.7,2,1.6,2.6,2.8c0.6,1.2,0.9,2.6,0.9,4.3v13.7h-6.9V29.7c0-1.2-0.3-2.1-0.9-2.8c-0.6-0.7-1.5-1-2.6-1
			c-0.7,0-1.4,0.2-1.9,0.5c-0.5,0.3-1,0.8-1.3,1.3C35.5,28.3,35.3,29,35.3,29.8z"/>
	</g>
	<g class="st0">
		<path class="st1" d="M59.2,42.5c-1.4,0-2.6-0.2-3.7-0.7c-1.1-0.5-1.9-1.2-2.5-2.1c-0.6-0.9-0.9-2.1-0.9-3.5c0-1.2,0.2-2.2,0.6-3
			s1-1.5,1.7-2c0.7-0.5,1.6-0.9,2.6-1.2c1-0.3,2-0.4,3.1-0.5c1.2-0.1,2.2-0.2,3-0.4c0.7-0.1,1.3-0.3,1.6-0.5c0.3-0.2,0.5-0.6,0.5-1
			v-0.1c0-0.7-0.2-1.3-0.7-1.7c-0.5-0.4-1.2-0.6-2-0.6c-0.9,0-1.6,0.2-2.2,0.6c-0.6,0.4-0.9,0.9-1.1,1.6l-6.3-0.2
			c0.2-1.3,0.7-2.5,1.5-3.5c0.8-1,1.9-1.8,3.2-2.4c1.4-0.6,3-0.9,4.9-0.9c1.4,0,2.6,0.2,3.8,0.5c1.2,0.3,2.2,0.8,3,1.4
			c0.9,0.6,1.5,1.4,2,2.3c0.5,0.9,0.7,1.9,0.7,3v14.7h-6.5v-3h-0.2c-0.4,0.7-0.9,1.3-1.5,1.9c-0.6,0.5-1.3,0.9-2.1,1.1
			C61.1,42.3,60.2,42.5,59.2,42.5z M61.4,38c0.7,0,1.4-0.1,2-0.4c0.6-0.3,1.1-0.7,1.4-1.2c0.4-0.5,0.5-1.1,0.5-1.8v-2
			c-0.2,0.1-0.4,0.2-0.7,0.3c-0.3,0.1-0.6,0.2-0.9,0.2c-0.3,0.1-0.7,0.1-1,0.2c-0.3,0.1-0.7,0.1-1,0.2c-0.6,0.1-1.2,0.3-1.6,0.5
			c-0.5,0.2-0.8,0.5-1,0.8c-0.2,0.3-0.4,0.7-0.4,1.2c0,0.7,0.3,1.3,0.8,1.6C59.9,37.8,60.6,38,61.4,38z"/>
	</g>
	<g class="st0">
		<path class="st1" d="M83,29.8v12.3h-6.9V20.5h6.5v4h0.2c0.5-1.3,1.3-2.4,2.4-3.1c1.2-0.8,2.5-1.1,4.1-1.1c1.5,0,2.8,0.3,4,1
			c1.1,0.7,2,1.6,2.6,2.8c0.6,1.2,0.9,2.6,0.9,4.2v13.7h-6.9V29.7c0-1.2-0.3-2.1-0.9-2.8c-0.6-0.7-1.5-1-2.5-1
			c-0.7,0-1.4,0.2-1.9,0.5s-1,0.8-1.3,1.3C83.2,28.3,83,29,83,29.8z"/>
	</g>
	<g class="st0">
		<path class="st1" d="M101,42.1V13.4h6.9v28.7H101z M107.2,36.4l0-8.2h1l6.1-7.7h7.8l-9,11.1h-1.8L107.2,36.4z M114.4,42.1l-5.6-9
			l4.5-4.9l9.1,13.8H114.4z"/>
	</g>
	<g class="st0">
		<path class="st1" d="M130.6,13.4l6.4,21.1h0.2l6.4-21.1h7.8l-9.7,28.7h-9.2l-9.7-28.7H130.6z"/>
	</g>
	<g class="st0">
		<path class="st1" d="M158.3,18c-1,0-1.8-0.3-2.5-1c-0.7-0.6-1-1.4-1-2.3c0-0.9,0.3-1.7,1-2.3c0.7-0.6,1.5-1,2.5-1
			c1,0,1.8,0.3,2.5,1c0.7,0.6,1,1.4,1,2.3c0,0.9-0.3,1.7-1,2.3C160.1,17.7,159.3,18,158.3,18z M154.9,42.1V20.5h6.9v21.6H154.9z"/>
	</g>
	<g class="st0">
		<path class="st1" d="M175.9,42.5c-2.3,0-4.2-0.4-5.8-1.3c-1.6-0.9-2.9-2.2-3.8-3.8c-0.9-1.7-1.3-3.6-1.3-5.9
			c0-2.2,0.4-4.2,1.3-5.8c0.9-1.7,2.1-3,3.7-3.9c1.6-0.9,3.5-1.4,5.7-1.4c1.5,0,2.9,0.2,4.2,0.7c1.3,0.5,2.4,1.2,3.3,2.1
			c0.9,0.9,1.6,2.1,2.2,3.5c0.5,1.4,0.8,2.9,0.8,4.7V33h-18.7v-4h12.3c0-0.7-0.2-1.4-0.5-2c-0.3-0.6-0.8-1-1.4-1.3
			c-0.6-0.3-1.3-0.5-2-0.5c-0.8,0-1.5,0.2-2.1,0.5c-0.6,0.3-1.1,0.8-1.4,1.4c-0.4,0.6-0.5,1.2-0.6,2v4.1c0,0.9,0.2,1.6,0.5,2.3
			c0.3,0.7,0.8,1.2,1.5,1.5c0.6,0.4,1.4,0.5,2.3,0.5c0.6,0,1.2-0.1,1.7-0.3c0.5-0.2,0.9-0.4,1.3-0.7c0.4-0.3,0.6-0.7,0.8-1.2
			l6.3,0.2c-0.3,1.4-0.8,2.6-1.7,3.7c-0.9,1-2,1.9-3.5,2.4C179.4,42.2,177.8,42.5,175.9,42.5z"/>
	</g>
	<g class="st0">
		<path class="st1" d="M192.7,42.1l-5.6-21.6h6.9l2.9,13.8h0.2l3.1-13.8h6.7l3.2,13.7h0.2l2.8-13.7h6.9l-5.6,21.6H207l-3.4-12.6
			h-0.2l-3.4,12.6H192.7z"/>
	</g>
	<g>
		<path class="st2" d="M102.5,70.6L5.3,71.1c-1.2,0-2.2-0.9-2.4-2.2L0,52.9c-0.3-1.6,0.9-3.1,2.4-3.1H105c1.5,0,2.7,1.5,2.4,3.1
			l-2.5,15.5C104.7,69.6,103.7,70.6,102.5,70.6L102.5,70.6z"/>
	</g>
	<g class="st0">
		<path class="st3" d="M9,60.4v-7.7h0.9v2.9h0.1c0.1-0.1,0.2-0.2,0.3-0.4c0.1-0.2,0.3-0.3,0.5-0.4c0.2-0.1,0.5-0.2,0.9-0.2
			c0.5,0,0.9,0.1,1.3,0.4c0.4,0.2,0.7,0.6,0.9,1c0.2,0.4,0.3,1,0.3,1.6c0,0.6-0.1,1.1-0.3,1.6c-0.2,0.4-0.5,0.8-0.9,1
			s-0.8,0.4-1.3,0.4c-0.4,0-0.7-0.1-0.9-0.2c-0.2-0.1-0.4-0.3-0.5-0.4c-0.1-0.2-0.2-0.3-0.3-0.4H9.8v0.9H9z M9.9,57.5
			c0,0.4,0.1,0.8,0.2,1.2c0.1,0.3,0.3,0.6,0.6,0.8c0.2,0.2,0.5,0.3,0.9,0.3c0.4,0,0.7-0.1,0.9-0.3c0.3-0.2,0.4-0.5,0.6-0.8
			c0.1-0.3,0.2-0.7,0.2-1.1c0-0.4-0.1-0.8-0.2-1.1c-0.1-0.3-0.3-0.6-0.6-0.8c-0.3-0.2-0.6-0.3-0.9-0.3c-0.4,0-0.7,0.1-0.9,0.3
			c-0.2,0.2-0.4,0.4-0.6,0.8C9.9,56.7,9.9,57.1,9.9,57.5z"/>
	</g>
	<g class="st0">
		<path class="st3" d="M15.9,62.6c-0.2,0-0.3,0-0.4,0c-0.1,0-0.2,0-0.2-0.1l0.2-0.8c0.2,0.1,0.4,0.1,0.6,0.1c0.2,0,0.3-0.1,0.4-0.2
			c0.1-0.1,0.2-0.3,0.4-0.6l0.2-0.5l-2.1-5.8h1l1.6,4.6h0.1l1.6-4.6h1l-2.5,6.6c-0.1,0.3-0.2,0.5-0.4,0.7c-0.2,0.2-0.4,0.3-0.6,0.4
			C16.4,62.5,16.2,62.6,15.9,62.6z"/>
	</g>
	<g class="st0">
		<path class="st3" d="M32.4,60.1c0,0.4-0.1,0.7-0.3,1c-0.2,0.2-0.5,0.3-1,0.3h-5.2v-0.9h2.3c0.3,0,0.5-0.2,0.5-0.5
			c0-0.7-0.1-1.3-0.3-1.6C28.3,58.1,28,58,27.8,58c-0.2,0-0.4,0.1-0.6,0.2c-0.2,0.2-0.3,0.4-0.4,0.7s-0.1,0.7-0.1,1.2
			c0,1.1,0.2,1.8,0.7,2.3c0.5,0.5,1.1,0.7,2,0.7c0.4,0,0.7,0,1.1-0.1c0.3-0.1,0.6-0.3,0.9-0.5c0.2-0.2,0.3-0.3,0.4-0.3
			c0.1-0.1,0.2-0.1,0.3-0.1c0.1,0,0.2,0.1,0.3,0.2c0.1,0.1,0.1,0.3,0.1,0.4c0,0.5-0.2,1-0.5,1.5c-0.4,0.5-0.8,0.8-1.5,1.1
			c-0.6,0.3-1.4,0.4-2.2,0.4c-0.9,0-1.7-0.2-2.4-0.5c-0.7-0.4-1.3-0.8-1.7-1.5c-0.4-0.6-0.6-1.4-0.6-2.2c0-1,0.2-1.8,0.6-2.5
			c0.4-0.7,0.9-1.3,1.7-1.6c0.7-0.4,1.6-0.6,2.6-0.6c0.9,0,1.7,0.1,2.3,0.4c0.6,0.3,1.1,0.7,1.4,1.2C32.2,58.9,32.4,59.4,32.4,60.1z
			"/>
	</g>
	<g class="st0">
		<path class="st3" d="M38.1,65.4h-1.4c-0.2,0-0.5-0.1-0.6-0.2c-0.2-0.1-0.3-0.3-0.4-0.6l-2.4-6c-0.1-0.2-0.2-0.4-0.2-0.4
			s-0.1-0.1-0.2-0.2L32.6,58c-0.1-0.1-0.2-0.1-0.3-0.2c-0.1-0.1-0.1-0.2-0.1-0.3c0-0.2,0.1-0.3,0.2-0.4c0.1-0.1,0.3-0.1,0.5-0.1h4.7
			c0.4,0,0.6,0.2,0.6,0.5c0,0.1,0,0.2-0.1,0.3C38,57.9,37.9,58,37.8,58l-0.2,0.1c-0.2,0.1-0.4,0.2-0.4,0.3c-0.1,0.2,0,0.4,0.1,0.8
			l1.7,4.5l-0.8,0.5l1.8-5c0.1-0.4,0.2-0.7,0.1-0.8c-0.1-0.2-0.2-0.3-0.4-0.3L39.4,58c-0.1,0-0.3-0.1-0.3-0.2
			C39,57.7,39,57.6,39,57.5c0-0.2,0.1-0.3,0.2-0.4s0.3-0.1,0.5-0.1h2.3c0.2,0,0.4,0,0.5,0.1c0.1,0.1,0.2,0.2,0.2,0.4
			c0,0.1,0,0.2-0.1,0.3c-0.1,0.1-0.2,0.2-0.3,0.2L42,58.1c-0.1,0-0.2,0.2-0.3,0.3c-0.1,0.2-0.2,0.5-0.4,0.9l-2.1,5.5
			c-0.1,0.3-0.3,0.5-0.5,0.6C38.5,65.4,38.3,65.4,38.1,65.4z"/>
	</g>
	<g class="st0">
		<path class="st3" d="M50.9,60.1c0,0.4-0.1,0.7-0.3,1c-0.2,0.2-0.5,0.3-1,0.3h-5.2v-0.9h2.3c0.3,0,0.5-0.2,0.5-0.5
			c0-0.7-0.1-1.3-0.3-1.6c-0.2-0.3-0.4-0.5-0.7-0.5c-0.2,0-0.4,0.1-0.6,0.2c-0.2,0.2-0.3,0.4-0.4,0.7c-0.1,0.3-0.1,0.7-0.1,1.2
			c0,1.1,0.2,1.8,0.7,2.3c0.5,0.5,1.1,0.7,2,0.7c0.4,0,0.7,0,1.1-0.1c0.3-0.1,0.6-0.3,0.9-0.5c0.2-0.2,0.3-0.3,0.4-0.3
			s0.2-0.1,0.3-0.1c0.1,0,0.2,0.1,0.3,0.2c0.1,0.1,0.1,0.3,0.1,0.4c0,0.5-0.2,1-0.5,1.5c-0.4,0.5-0.8,0.8-1.5,1.1
			c-0.6,0.3-1.4,0.4-2.2,0.4c-0.9,0-1.7-0.2-2.4-0.5s-1.3-0.8-1.7-1.5s-0.6-1.4-0.6-2.2c0-1,0.2-1.8,0.6-2.5
			c0.4-0.7,0.9-1.3,1.7-1.6c0.7-0.4,1.6-0.6,2.6-0.6c0.9,0,1.7,0.1,2.3,0.4c0.6,0.3,1.1,0.7,1.4,1.2C50.7,58.9,50.9,59.4,50.9,60.1z
			"/>
	</g>
	<g class="st0">
		<path class="st3" d="M55.9,57.5l0.2,1.8v4.3c0,0.2,0,0.3,0.1,0.4c0.1,0.1,0.2,0.1,0.4,0.2l0.7,0.1c0.2,0,0.3,0.1,0.4,0.2
			c0.1,0.1,0.1,0.2,0.1,0.4c0,0.2-0.1,0.3-0.2,0.4s-0.3,0.1-0.5,0.1h-4.8c-0.2,0-0.4,0-0.5-0.1c-0.1-0.1-0.2-0.2-0.2-0.4
			c0-0.1,0-0.2,0.1-0.3c0.1-0.1,0.2-0.2,0.3-0.2l0.2-0.1c0.1,0,0.1-0.1,0.2-0.2c0-0.1,0.1-0.3,0.1-0.5v-4.1c0-0.2,0-0.3-0.1-0.4
			c0-0.1-0.1-0.1-0.2-0.2l-0.2-0.1c-0.1,0-0.2-0.1-0.3-0.2c-0.1-0.1-0.1-0.2-0.1-0.3c0-0.1,0-0.3,0.1-0.3c0.1-0.1,0.2-0.2,0.4-0.2
			l1.9-0.7c0.4-0.2,0.7-0.3,0.9-0.3c0.2,0,0.3-0.1,0.4-0.1c0.2,0,0.3,0.1,0.4,0.2C55.8,57,55.9,57.2,55.9,57.5z M55.8,60.6
			c0-0.9,0.1-1.6,0.4-2.2c0.2-0.6,0.5-1,0.9-1.3c0.4-0.3,0.8-0.4,1.3-0.4c0.6,0,1.1,0.2,1.4,0.6c0.3,0.4,0.5,0.9,0.5,1.7
			c0,0.8-0.2,1.3-0.5,1.7c-0.3,0.4-0.7,0.5-1.2,0.5c-0.5,0-0.9-0.1-1.1-0.4c-0.2-0.3-0.4-0.6-0.4-1.1v-0.4c0-0.2,0-0.3-0.1-0.3
			c-0.1-0.1-0.2-0.1-0.3-0.1c-0.1,0-0.2,0.1-0.3,0.2c-0.1,0.1-0.2,0.3-0.2,0.5c-0.1,0.2-0.1,0.5-0.1,0.9L55.8,60.6z"/>
	</g>
	<g class="st0">
		<path class="st3" d="M61.2,58.1L60.9,58c-0.1-0.1-0.2-0.1-0.3-0.2c-0.1-0.1-0.1-0.2-0.1-0.3c0-0.2,0.1-0.3,0.2-0.4
			C60.8,57,61,57,61.2,57h0.5c0.1,0,0.2,0,0.3-0.1c0.1-0.1,0.2-0.2,0.4-0.3l1.4-1.4c0.2-0.2,0.4-0.3,0.5-0.4
			c0.2-0.1,0.3-0.1,0.5-0.1c0.2,0,0.3,0.1,0.4,0.2s0.1,0.3,0.1,0.5v7c0,0.4,0.1,0.8,0.2,1c0.1,0.2,0.4,0.3,0.6,0.3
			c0.2,0,0.4-0.1,0.5-0.2c0.1-0.1,0.2-0.2,0.3-0.4c0.1-0.1,0.2-0.3,0.2-0.4c0.1-0.1,0.2-0.2,0.3-0.2c0.1,0,0.2,0,0.3,0.1
			c0.1,0.1,0.1,0.2,0.1,0.4c0,0.5-0.1,0.9-0.4,1.4c-0.3,0.4-0.7,0.7-1.2,1c-0.5,0.2-1.1,0.4-1.7,0.4c-1,0-1.7-0.2-2.2-0.7
			c-0.5-0.5-0.8-1.2-0.8-2.1v-4.2c0-0.2,0-0.3-0.1-0.4C61.4,58.2,61.3,58.2,61.2,58.1z M64,58.2V57h3.2c0.2,0,0.3,0,0.4,0.1
			c0.1,0.1,0.2,0.2,0.2,0.3c0,0.2-0.1,0.4-0.3,0.6c-0.2,0.2-0.6,0.2-1.1,0.2H64z"/>
	</g>
	<g class="st0">
		<path class="st3" d="M72.5,57.5l0.2,1.8v4.3c0,0.2,0,0.3,0.1,0.4c0.1,0.1,0.2,0.1,0.4,0.2l0.7,0.1c0.2,0,0.3,0.1,0.4,0.2
			c0.1,0.1,0.1,0.2,0.1,0.4c0,0.2-0.1,0.3-0.2,0.4c-0.1,0.1-0.3,0.1-0.5,0.1h-4.8c-0.2,0-0.4,0-0.5-0.1s-0.2-0.2-0.2-0.4
			c0-0.1,0-0.2,0.1-0.3c0.1-0.1,0.2-0.2,0.3-0.2l0.2-0.1c0.1,0,0.1-0.1,0.2-0.2c0-0.1,0.1-0.3,0.1-0.5v-4.1c0-0.2,0-0.3-0.1-0.4
			c0-0.1-0.1-0.1-0.2-0.2l-0.2-0.1c-0.1,0-0.2-0.1-0.3-0.2c-0.1-0.1-0.1-0.2-0.1-0.3c0-0.1,0-0.3,0.1-0.3c0.1-0.1,0.2-0.2,0.4-0.2
			l1.9-0.7c0.4-0.2,0.7-0.3,0.9-0.3c0.2,0,0.3-0.1,0.4-0.1c0.2,0,0.3,0.1,0.4,0.2C72.4,57,72.4,57.2,72.5,57.5z M72.4,60.6
			c0-0.9,0.1-1.6,0.4-2.2c0.2-0.6,0.5-1,0.9-1.3c0.4-0.3,0.8-0.4,1.3-0.4c0.6,0,1.1,0.2,1.4,0.6c0.3,0.4,0.5,0.9,0.5,1.7
			c0,0.8-0.2,1.3-0.5,1.7c-0.3,0.4-0.7,0.5-1.2,0.5c-0.5,0-0.9-0.1-1.1-0.4c-0.2-0.3-0.4-0.6-0.4-1.1v-0.4c0-0.2,0-0.3-0.1-0.3
			c-0.1-0.1-0.2-0.1-0.3-0.1c-0.1,0-0.2,0.1-0.3,0.2c-0.1,0.1-0.2,0.3-0.2,0.5c-0.1,0.2-0.1,0.5-0.1,0.9L72.4,60.6z"/>
	</g>
	<g class="st0">
		<path class="st3" d="M78.1,62.9v-3.4c0-0.2,0-0.3-0.1-0.4c0-0.1-0.1-0.1-0.2-0.2l-0.2-0.1c-0.1,0-0.2-0.1-0.3-0.2
			c-0.1-0.1-0.1-0.2-0.1-0.3c0-0.1,0-0.3,0.1-0.3c0.1-0.1,0.2-0.2,0.4-0.2l1.9-0.8c0.3-0.1,0.6-0.2,0.7-0.3c0.2,0,0.3-0.1,0.5-0.1
			c0.3,0,0.5,0.1,0.6,0.2c0.1,0.1,0.2,0.3,0.2,0.6v4.8c0,0.4,0.1,0.7,0.3,0.8c0.2,0.2,0.4,0.3,0.7,0.3c0.2,0,0.4,0,0.6-0.1
			c0.2-0.1,0.4-0.2,0.6-0.3l0.3-0.3l0.5,0.6l-0.3,0.2c-0.8,0.8-1.5,1.3-2.1,1.7c-0.6,0.3-1.2,0.5-1.7,0.5c-0.8,0-1.4-0.3-1.9-0.8
			C78.3,64.4,78.1,63.7,78.1,62.9z M83.9,63.6v-0.1h-0.1v-4.1c0-0.2,0-0.3-0.1-0.4c0-0.1-0.1-0.1-0.2-0.2l-0.2-0.1
			c-0.1,0-0.2-0.1-0.3-0.2c-0.1-0.1-0.1-0.2-0.1-0.3c0-0.1,0-0.3,0.1-0.3c0.1-0.1,0.2-0.2,0.4-0.2l1.9-0.8c0.3-0.1,0.5-0.2,0.7-0.3
			s0.4-0.1,0.5-0.1c0.3,0,0.5,0.1,0.6,0.2c0.1,0.1,0.2,0.3,0.2,0.6v6.1c0,0.2,0,0.4,0.1,0.5c0,0.1,0.1,0.2,0.2,0.2l0.2,0.1
			c0.1,0.1,0.2,0.1,0.3,0.2c0.1,0.1,0.1,0.2,0.1,0.3c0,0.2-0.1,0.3-0.2,0.4s-0.3,0.1-0.5,0.1h-2.1c-0.4,0-0.8-0.2-1.1-0.5
			C84,64.5,83.9,64.1,83.9,63.6z"/>
	</g>
	<g class="st0">
		<path class="st3" d="M97.4,60.1c0,0.4-0.1,0.7-0.3,1c-0.2,0.2-0.5,0.3-1,0.3h-5.2v-0.9h2.3c0.3,0,0.5-0.2,0.5-0.5
			c0-0.7-0.1-1.3-0.3-1.6c-0.2-0.3-0.4-0.5-0.7-0.5c-0.2,0-0.4,0.1-0.6,0.2c-0.2,0.2-0.3,0.4-0.4,0.7s-0.1,0.7-0.1,1.2
			c0,1.1,0.2,1.8,0.7,2.3c0.5,0.5,1.1,0.7,2,0.7c0.4,0,0.7,0,1.1-0.1c0.3-0.1,0.6-0.3,0.9-0.5c0.2-0.2,0.3-0.3,0.4-0.3
			c0.1-0.1,0.2-0.1,0.3-0.1c0.1,0,0.2,0.1,0.3,0.2c0.1,0.1,0.1,0.3,0.1,0.4c0,0.5-0.2,1-0.5,1.5c-0.4,0.5-0.8,0.8-1.5,1.1
			c-0.6,0.3-1.4,0.4-2.2,0.4c-0.9,0-1.7-0.2-2.4-0.5c-0.7-0.4-1.3-0.8-1.7-1.5c-0.4-0.6-0.6-1.4-0.6-2.2c0-1,0.2-1.8,0.6-2.5
			c0.4-0.7,0.9-1.3,1.7-1.6c0.7-0.4,1.6-0.6,2.6-0.6c0.9,0,1.7,0.1,2.3,0.4c0.6,0.3,1.1,0.7,1.4,1.2C97.3,58.9,97.4,59.4,97.4,60.1z
			"/>
	</g>
</g>
</svg>
